<?xml version="1.0" encoding="UTF-8" standalone="no"?>
<!-- Created with Inkscape (http://www.inkscape.org/) -->

<svg
   version="1.1"
   id="svg1"
   width="180"
   height="53.333599"
   viewBox="0 0 180 53.333599"
   xmlns="http://www.w3.org/2000/svg"
   xmlns:svg="http://www.w3.org/2000/svg">
  <defs
     id="defs1">
    <clipPath
       clipPathUnits="userSpaceOnUse"
       id="clipPath1">
      <path
         d="M 0,60 H 155 V 0 H 0 Z"
         id="path1" />
    </clipPath>
    <clipPath
       clipPathUnits="userSpaceOnUse"
       id="clipPath3">
      <path
         d="M 0,60 H 155 V 0 H 0 Z"
         transform="matrix(1.3333333,0,0,-1.3333333,0,80)"
         id="path3" />
    </clipPath>
    <clipPath
       clipPathUnits="userSpaceOnUse"
       id="clipPath5">
      <path
         d="M 0,60 H 155 V 0 H 0 Z"
         transform="translate(-140.0001,-10.000101)"
         id="path5" />
    </clipPath>
    <clipPath
       clipPathUnits="userSpaceOnUse"
       id="clipPath7">
      <path
         d="M 0,60 H 155 V 0 H 0 Z"
         transform="translate(-140.0001,-49.999901)"
         id="path7" />
    </clipPath>
    <clipPath
       clipPathUnits="userSpaceOnUse"
       id="clipPath9">
      <path
         d="M 0,60 H 155 V 0 H 0 Z"
         id="path9" />
    </clipPath>
    <clipPath
       clipPathUnits="userSpaceOnUse"
       id="clipPath11">
      <path
         d="M 0,60 H 155 V 0 H 0 Z"
         transform="translate(-30.717301,-30.575901)"
         id="path11" />
    </clipPath>
    <clipPath
       clipPathUnits="userSpaceOnUse"
       id="clipPath13">
      <path
         d="M 0,60 H 155 V 0 H 0 Z"
         transform="translate(-41.488201,-32.500101)"
         id="path13" />
    </clipPath>
    <clipPath
       clipPathUnits="userSpaceOnUse"
       id="clipPath15">
      <path
         d="M 0,60 H 155 V 0 H 0 Z"
         transform="translate(-20.0701,-40.722901)"
         id="path15" />
    </clipPath>
    <clipPath
       clipPathUnits="userSpaceOnUse"
       id="clipPath17">
      <path
         d="M 0,60 H 155 V 0 H 0 Z"
         transform="translate(-30.795901,-29.999101)"
         id="path17" />
    </clipPath>
    <clipPath
       clipPathUnits="userSpaceOnUse"
       id="clipPath19">
      <path
         d="M 0,60 H 155 V 0 H 0 Z"
         transform="translate(-81.302702,-41.504901)"
         id="path19" />
    </clipPath>
    <clipPath
       clipPathUnits="userSpaceOnUse"
       id="clipPath21">
      <path
         d="M 0,60 H 155 V 0 H 0 Z"
         transform="translate(-81.302702,-41.504901)"
         id="path21" />
    </clipPath>
    <clipPath
       clipPathUnits="userSpaceOnUse"
       id="clipPath23">
      <path
         d="M 0,60 H 155 V 0 H 0 Z"
         transform="translate(-87.971702,-39.211401)"
         id="path23" />
    </clipPath>
    <clipPath
       clipPathUnits="userSpaceOnUse"
       id="clipPath25">
      <path
         d="M 0,60 H 155 V 0 H 0 Z"
         transform="translate(-87.971702,-39.211401)"
         id="path25" />
    </clipPath>
    <clipPath
       clipPathUnits="userSpaceOnUse"
       id="clipPath27">
      <path
         d="M 0,60 H 155 V 0 H 0 Z"
         transform="translate(-92.999005,-40.328601)"
         id="path27" />
    </clipPath>
    <clipPath
       clipPathUnits="userSpaceOnUse"
       id="clipPath29">
      <path
         d="M 0,60 H 155 V 0 H 0 Z"
         transform="translate(-92.999005,-40.328601)"
         id="path29" />
    </clipPath>
    <clipPath
       clipPathUnits="userSpaceOnUse"
       id="clipPath31">
      <path
         d="M 0,60 H 155 V 0 H 0 Z"
         transform="translate(-100.4502,-37.138201)"
         id="path31" />
    </clipPath>
    <clipPath
       clipPathUnits="userSpaceOnUse"
       id="clipPath33">
      <path
         d="M 0,60 H 155 V 0 H 0 Z"
         transform="translate(-100.4502,-37.138201)"
         id="path33" />
    </clipPath>
    <clipPath
       clipPathUnits="userSpaceOnUse"
       id="clipPath35">
      <path
         d="M 0,60 H 155 V 0 H 0 Z"
         transform="translate(-101.06541,-38.373501)"
         id="path35" />
    </clipPath>
    <clipPath
       clipPathUnits="userSpaceOnUse"
       id="clipPath37">
      <path
         d="M 0,60 H 155 V 0 H 0 Z"
         transform="translate(-103.90431,-38.373501)"
         id="path37" />
    </clipPath>
    <clipPath
       clipPathUnits="userSpaceOnUse"
       id="clipPath39">
      <path
         d="M 0,60 H 155 V 0 H 0 Z"
         transform="translate(-117.3369,-37.777301)"
         id="path39" />
    </clipPath>
    <clipPath
       clipPathUnits="userSpaceOnUse"
       id="clipPath41">
      <path
         d="M 0,60 H 155 V 0 H 0 Z"
         transform="translate(-123.0088,-39.211401)"
         id="path41" />
    </clipPath>
    <clipPath
       clipPathUnits="userSpaceOnUse"
       id="clipPath43">
      <path
         d="M 0,60 H 155 V 0 H 0 Z"
         transform="translate(-123.0088,-39.211401)"
         id="path43" />
    </clipPath>
    <clipPath
       clipPathUnits="userSpaceOnUse"
       id="clipPath45">
      <path
         d="M 0,60 H 155 V 0 H 0 Z"
         transform="translate(-127.2432,-38.373501)"
         id="path45" />
    </clipPath>
    <clipPath
       clipPathUnits="userSpaceOnUse"
       id="clipPath47">
      <path
         d="M 0,60 H 155 V 0 H 0 Z"
         transform="translate(-135.2539,-42.036601)"
         id="path47" />
    </clipPath>
  </defs>
  <g
     id="g18"
     transform="matrix(1.5042071,0,0,1.3324957,2.5144865e-6,0.01679893)">
    <g
       id="g2">
      <path
         d="M 9.53468,0 C 9.16798,0 8.80568,0 8.43995,0.002 8.1338,0.004 7.83009,0.00981 7.52095,0.0147 A 13.21479,13.21479 0 0 0 5.5171,0.19141 6.6651,6.6651 0 0 0 3.61622,0.81841 6.43779,6.43779 0 0 0 1.99757,1.99707 6.25844,6.25844 0 0 0 0.81935,3.61816 a 6.60119,6.60119 0 0 0 -0.625,1.90332 12.993,12.993 0 0 0 -0.1792,2.002 C 0.00587,7.83008 0.00489,8.1377 0,8.44434 V 31.5586 c 0.00489,0.3105 0.00587,0.6113 0.01515,0.9219 a 12.99234,12.99234 0 0 0 0.1792,2.0019 6.58757,6.58757 0 0 0 0.625,1.9043 6.20777,6.20777 0 0 0 1.17822,1.6143 6.27446,6.27446 0 0 0 1.61865,1.1787 6.70087,6.70087 0 0 0 1.90088,0.6308 13.45487,13.45487 0 0 0 2.0039,0.1768 C 7.83009,39.9941 8.1338,39.998 8.44,39.998 8.80567,40 9.168,40 9.53468,40 h 100.60009 c 0.3594,0 0.7246,0 1.084,-0.002 0.3047,0 0.6172,-0.0039 0.9219,-0.0107 a 13.27905,13.27905 0 0 0 2,-0.1768 6.80427,6.80427 0 0 0 1.9082,-0.6308 6.27749,6.27749 0 0 0 1.6172,-1.1787 6.39485,6.39485 0 0 0 1.1816,-1.6143 6.60423,6.60423 0 0 0 0.6191,-1.9043 13.507,13.507 0 0 0 0.1856,-2.0019 c 0.004,-0.3106 0.004,-0.6114 0.004,-0.9219 0.008,-0.3633 0.008,-0.7246 0.008,-1.0938 V 9.53613 c 0,-0.36621 0,-0.72949 -0.008,-1.09179 0,-0.30664 0,-0.61426 -0.004,-0.9209 a 13.50724,13.50724 0 0 0 -0.1856,-2.002 6.61789,6.61789 0 0 0 -0.6191,-1.90332 6.46615,6.46615 0 0 0 -2.7988,-2.7998 6.7676,6.7676 0 0 0 -1.9082,-0.627 13.04391,13.04391 0 0 0 -2,-0.17676 c -0.3047,-0.00488 -0.6172,-0.01074 -0.9219,-0.01269 -0.3594,-0.002 -0.7246,-0.002 -1.084,-0.002 v 0"
         transform="translate(0,1.3e-4)"
         style="fill:#a6a6a6"
         id="path1-6" />
      <path
         d="m 111.21387,0.875 0.9131,0.0127 a 12.38493,12.38493 0 0 1 1.8584,0.16259 5.93833,5.93833 0 0 1 1.6709,0.54785 5.59375,5.59375 0 0 1 2.415,2.41993 5.76261,5.76261 0 0 1 0.5352,1.64892 12.99507,12.99507 0 0 1 0.1738,1.88721 c 0.003,0.2832 0.003,0.5874 0.003,0.89014 0.008,0.375 0.008,0.73193 0.008,1.09179 V 30.4648 c 0,0.3633 0,0.7178 -0.008,1.0752 0,0.3252 0,0.6231 -0.004,0.9297 a 12.73188,12.73188 0 0 1 -0.1709,1.8535 5.739,5.739 0 0 1 -0.54,1.67 5.48036,5.48036 0 0 1 -1.0156,1.3857 5.41292,5.41292 0 0 1 -1.3994,1.0225 5.86168,5.86168 0 0 1 -1.668,0.5498 12.54258,12.54258 0 0 1 -1.8692,0.1631 c -0.2929,0.0068 -0.5996,0.0107 -0.8974,0.0107 l -1.084,0.002 L 8.44483,39.125 c -0.30468,0 -0.602,-0.0039 -0.90429,-0.0107 A 12.6871,12.6871 0 0 1 5.6714,38.9512 5.88383,5.88383 0 0 1 4.01466,38.4033 5.40573,5.40573 0 0 1 2.61766,37.3867 5.3208,5.3208 0 0 1 1.59715,35.9902 5.72186,5.72186 0 0 1 1.05415,34.333 12.41352,12.41352 0 0 1 0.88765,32.458 C 0.88131,32.2471 0.873,31.5449 0.873,31.5449 V 8.44434 c 0,0 0.00885,-0.69141 0.0147,-0.89454 A 12.3704,12.3704 0 0 1 1.05323,5.67773 5.7555,5.7555 0 0 1 1.59669,4.01563 5.37349,5.37349 0 0 1 2.61183,2.61763 5.56543,5.56543 0 0 1 4.01417,1.59521 5.82309,5.82309 0 0 1 5.66749,1.05127 12.58586,12.58586 0 0 1 7.543,0.88721 L 8.44532,0.875"
         transform="translate(0,1.3e-4)"
         id="path2" />
    </g>
    <g
       id="_Group_"
       data-name=" Group ">
      <g
         id="_Group_2"
         data-name=" Group 2">
        <path
           id="_Path_"
           data-name=" Path "
           d="m 107.259,20.30068 a 4.94881,4.94881 0 0 1 2.35656,-4.15206 5.06566,5.06566 0 0 0 -3.99116,-2.15768 c -1.67924,-0.17626 -3.30719,1.00483 -4.1629,1.00483 -0.87227,0 -2.18977,-0.98733 -3.6085,-0.95814 a 5.3153,5.3153 0 0 0 -4.47292,2.72787 c -1.934,3.34842 -0.49141,8.26947 1.3612,10.97608 0.9269,1.32535 2.01018,2.8058 3.42763,2.7533 1.38706,-0.05753 1.9051,-0.88448 3.5794,-0.88448 1.65876,0 2.14479,0.88448 3.591,0.8511 1.48838,-0.02416 2.42613,-1.33124 3.32051,-2.66914 a 10.96189,10.96189 0 0 0 1.51842,-3.09251 4.78205,4.78205 0 0 1 -2.91924,-4.39917 z"
           transform="translate(0,1.3e-4)"
           style="fill:#ffffff" />
        <path
           id="_Path_2"
           data-name=" Path 2"
           d="m 104.52739,12.21089 a 4.87248,4.87248 0 0 0 1.11452,-3.49062 4.95746,4.95746 0 0 0 -3.20758,1.65961 4.63635,4.63635 0 0 0 -1.14371,3.36139 4.09905,4.09905 0 0 0 3.23677,-1.53038 z"
           transform="translate(0,1.3e-4)"
           style="fill:#ffffff" />
      </g>
    </g>
    <g
       id="g10">
      <path
         d="M 17.1981,27.13965 H 12.4647 L 11.328,30.49609 H 9.3231 l 4.4834,-12.418 h 2.083 l 4.4834,12.418 h -2.03907 z m -4.24316,-1.54883 h 3.752 l -1.84961,-5.44727 h -0.05176 z"
         transform="translate(0,1.3e-4)"
         style="fill:#ffffff"
         id="path3-0" />
      <path
         d="m 30.05552,25.96973 c 0,2.81348 -1.50586,4.62109 -3.77832,4.62109 a 3.0693,3.0693 0 0 1 -2.84863,-1.584 h -0.043 V 33.4912 H 21.5272 V 21.44238 h 1.7988 v 1.50586 h 0.03418 A 3.21162,3.21162 0 0 1 26.243,21.34766 c 2.29787,0 3.81252,1.8164 3.81252,4.62207 z m -1.91016,0 c 0,-1.833 -0.94727,-3.03809 -2.39258,-3.03809 -1.41992,0 -2.375,1.23047 -2.375,3.03809 0,1.82422 0.95508,3.0459 2.375,3.0459 1.44532,0 2.39259,-1.19629 2.39259,-3.0459 z"
         transform="translate(0,1.3e-4)"
         style="fill:#ffffff"
         id="path4-6" />
      <path
         d="m 40.02037,25.96973 c 0,2.81348 -1.50586,4.62109 -3.77832,4.62109 a 3.0693,3.0693 0 0 1 -2.84863,-1.584 h -0.043 V 33.4912 H 31.492 V 21.44238 h 1.79883 v 1.50586 H 33.325 a 3.21162,3.21162 0 0 1 2.88281,-1.60059 c 2.29791,10e-6 3.81256,1.81641 3.81256,4.62208 z m -1.91016,0 c 0,-1.833 -0.94727,-3.03809 -2.39258,-3.03809 -1.41992,0 -2.375,1.23047 -2.375,3.03809 0,1.82422 0.95508,3.0459 2.375,3.0459 1.44531,0 2.39258,-1.19629 2.39258,-3.0459 z"
         transform="translate(0,1.3e-4)"
         style="fill:#ffffff"
         id="path5-2" />
      <path
         d="m 46.6063,27.03613 c 0.1377,1.23145 1.334,2.04 2.96875,2.04 1.56641,0 2.69336,-0.80859 2.69336,-1.91895 0,-0.96387 -0.67969,-1.541 -2.28906,-1.93652 L 48.37,24.833 c -2.28027,-0.55078 -3.33887,-1.61719 -3.33887,-3.34766 0,-2.14258 1.86719,-3.61426 4.51855,-3.61426 2.624,0 4.42285,1.47168 4.4834,3.61426 h -1.876 c -0.1123,-1.23926 -1.13672,-1.9873 -2.63379,-1.9873 -1.49707,0 -2.52148,0.75684 -2.52148,1.8584 0,0.87793 0.6543,1.39453 2.25488,1.79 l 1.36816,0.33594 c 2.54785,0.60254 3.60645,1.626 3.60645,3.44238 0,2.32324 -1.85059,3.77832 -4.79395,3.77832 -2.75391,0 -4.61328,-1.4209 -4.7334,-3.667 z"
         transform="translate(0,1.3e-4)"
         style="fill:#ffffff"
         id="path6-6" />
      <path
         d="m 58.242,19.2998 v 2.14258 h 1.72168 v 1.47168 H 58.242 v 4.99121 c 0,0.77539 0.34473,1.13672 1.10156,1.13672 a 5.80743,5.80743 0 0 0 0.61133,-0.043 v 1.46289 a 5.10345,5.10345 0 0 1 -1.03223,0.08594 c -1.833,0 -2.54785,-0.68848 -2.54785,-2.44434 v -5.18942 h -1.31636 v -1.47168 h 1.31641 V 19.2998 Z"
         transform="translate(0,1.3e-4)"
         style="fill:#ffffff"
         id="path7-1" />
      <path
         d="m 60.96079,25.96973 c 0,-2.84863 1.67773,-4.63867 4.29395,-4.63867 2.625,0 4.29492,1.79 4.29492,4.63867 0,2.85645 -1.66113,4.63867 -4.29492,4.63867 -2.63281,0 -4.29395,-1.78223 -4.29395,-4.63867 z m 6.69531,0 c 0,-1.9541 -0.89551,-3.10742 -2.40137,-3.10742 -1.50586,0 -2.40039,1.16211 -2.40039,3.10742 0,1.96191 0.89453,3.10645 2.40039,3.10645 1.50586,0 2.40138,-1.14454 2.40138,-3.10645 z"
         transform="translate(0,1.3e-4)"
         style="fill:#ffffff"
         id="path8-8" />
      <path
         d="m 71.08189,21.44238 h 1.77246 v 1.541 h 0.043 a 2.1594,2.1594 0 0 1 2.17773,-1.63574 2.86616,2.86616 0 0 1 0.63672,0.06934 v 1.73828 a 2.59791,2.59791 0 0 0 -0.835,-0.1123 1.87263,1.87263 0 0 0 -1.93652,2.083 v 5.37012 h -1.8584 z"
         transform="translate(0,1.3e-4)"
         style="fill:#ffffff"
         id="path9-7" />
      <path
         d="m 84.28013,27.83691 c -0.25,1.64355 -1.85059,2.77148 -3.89844,2.77148 -2.63379,0 -4.26855,-1.76465 -4.26855,-4.5957 0,-2.83984 1.64355,-4.68164 4.19043,-4.68164 2.50488,0 4.08008,1.7207 4.08008,4.46582 v 0.63672 h -6.39453 v 0.1123 a 2.358,2.358 0 0 0 2.43555,2.56445 2.04834,2.04834 0 0 0 2.09082,-1.27344 z M 77.9979,25.13477 h 4.52637 a 2.1773,2.1773 0 0 0 -2.05288,-2.295 q -0.08383,-0.0047 -0.16782,-0.0029 a 2.292,2.292 0 0 0 -2.30563,2.27829 q -6e-5,0.0098 -4e-5,0.01957 z"
         transform="translate(0,1.3e-4)"
         style="fill:#ffffff"
         id="path10-9" />
    </g>
    <g
       id="g17">
      <path
         d="m 53.7939,16.0835 h -0.65332 c -1.272,0 -2.61377,-0.26123 -2.61377,-2.02148 a 9.81046,9.81046 0 0 1 0.54,-2.31738 l 0.84521,0.22656 -0.12207,0.39209 A 7.92754,7.92754 0 0 0 51.433,14.062 c 0,1.21094 1.15869,1.21094 1.94287,1.21094 h 0.54883 c 0.39209,0 0.93213,-0.15674 0.93213,-0.65332 v -3.4414 h 0.93262 v 2.5791 a 1.53553,1.53553 0 0 0 0.63574,0.12158 h 0.32227 v 0.80176 h -0.32227 a 2.26374,2.26374 0 0 1 -0.63574,-0.0957 v 0.122 c 6e-5,0.45271 -0.34857,1.37654 -1.99555,1.37654 z m -0.53125,-5.84619 a 0.56247,0.56247 0 1 1 0.59229,-0.56641 0.55276,0.55276 0 0 1 -0.53748,0.56762 q -0.02742,7.5e-4 -0.05481,-0.0012 z"
         transform="translate(0,1.3e-4)"
         style="fill:#ffffff"
         id="path11-2" />
      <path
         d="m 57.79976,13.87891 a 4.01977,4.01977 0 0 1 -0.14844,-1.17627 1.86265,1.86265 0 0 1 1.89063,-2.05615 c 1.2373,0 1.7168,1.01074 1.7168,2.21338 0,0.88867 -0.314,2.09082 -1.5249,2.09082 a 4.586,4.586 0 0 1 -1.16748,-0.27 h -1.978 v -0.80176 z m 0.94092,0.03516 a 2.81692,2.81692 0 0 0 0.93213,0.21777 c 0.54,0 0.68848,-0.68848 0.68848,-1.29834 0,-0.5835 -0.16553,-1.41992 -0.87158,-1.41992 -0.63574,0 -0.91455,0.59229 -0.91455,1.3418 a 3.41881,3.41881 0 0 0 0.16552,1.15868 z"
         transform="translate(0,1.3e-4)"
         style="fill:#ffffff"
         id="path12-0" />
      <path
         d="m 67.40767,16.0835 h -0.65332 c -1.27246,0 -2.61426,-0.26123 -2.61426,-2.02148 a 9.83461,9.83461 0 0 1 0.54,-2.31738 l 0.8457,0.22656 -0.12207,0.39209 A 7.92511,7.92511 0 0 0 65.0463,14.062 c 0,1.21094 1.15918,1.21094 1.94336,1.21094 h 0.54883 c 0.3916,0 0.93164,-0.15674 0.93164,-0.65332 V 8.80811 h 0.93262 v 4.94922 a 1.53717,1.53717 0 0 0 0.63574,0.12158 h 0.32227 v 0.80176 h -0.32227 a 2.26872,2.26872 0 0 1 -0.63574,-0.0957 v 0.122 c 4e-5,0.4527 -0.34859,1.37653 -1.99508,1.37653 z"
         transform="translate(0,1.3e-4)"
         style="fill:#ffffff"
         id="path13-2" />
      <path
         d="m 73.49556,10.69043 v 2.44824 c 0,1.03662 -0.61914,1.542 -1.84766,1.542 h -1.44628 v -0.80176 h 1.41211 c 0.74023,0 0.94043,-0.32227 0.94043,-0.87109 v -2.31739 z m -2.335,5.94189 a 0.56249,0.56249 0 1 1 0.59277,-0.56641 0.55277,0.55277 0 0 1 -0.59274,0.56641 z m 1.46387,0 a 0.56246,0.56246 0 1 1 0.5918,-0.56641 0.55276,0.55276 0 0 1 -0.53751,0.5676 q -0.02713,7.4e-4 -0.05424,-0.0012 z"
         transform="translate(0,1.3e-4)"
         style="fill:#ffffff"
         id="path14-3" />
      <path
         d="m 74.19088,15.98779 a 3.48855,3.48855 0 0 0 0.40039,0.02588 c 0.76758,0 1.15039,-0.44434 1.15039,-1.3418 v -3.50244 h 0.94141 v 2.70947 h 0.8623 v 0.80176 h -0.87109 a 2.35047,2.35047 0 0 1 -0.60156,1.61182 2.215,2.215 0 0 1 -1.51562,0.51416 5.18281,5.18281 0 0 1 -0.59277,-0.04346 z m 1.97754,-5.66357 a 0.56249,0.56249 0 1 1 0.59277,-0.56641 0.55247,0.55247 0 0 1 -0.59277,0.56641 z"
         transform="translate(0,1.3e-4)"
         style="fill:#ffffff"
         id="path15-7" />
      <path
         d="m 80.63716,14.68066 a 2.34857,2.34857 0 0 1 -1.07129,-0.29639 2.60147,2.60147 0 0 1 -1.47266,0.29639 h -0.706 V 13.8789 H 78.146 c 0.71387,0 0.85352,-0.11328 0.85352,-0.63574 v -2.55273 h 0.93262 v 3.03174 a 1.588,1.588 0 0 0 0.70508,0.15674 h 0.584 v 0.80176 z M 79.42623,9.81885 A 0.56249,0.56249 0 1 1 80.019,9.25244 0.55247,0.55247 0 0 1 79.42623,9.81885 Z"
         transform="translate(0,1.3e-4)"
         style="fill:#ffffff"
         id="path16-5" />
      <path
         d="m 83.45064,10.69043 v 2.44824 c 0,1.03662 -0.61816,1.542 -1.84668,1.542 h -0.541 v -0.80176 h 0.50587 c 0.74023,0 0.94043,-0.32227 0.94043,-0.87109 V 10.69043 Z M 82.0649,9.81885 A 0.56249,0.56249 0 1 1 82.65767,9.25244 0.55247,0.55247 0 0 1 82.0649,9.81885 Z m 1.46387,0 a 0.56249,0.56249 0 1 1 0.59277,-0.56641 0.55247,0.55247 0 0 1 -0.59277,0.56641 z"
         transform="translate(0,1.3e-4)"
         style="fill:#ffffff"
         id="path17-9" />
    </g>
  </g>
</svg>
