<svg width="70" height="70" viewBox="0 0 70 70" fill="none" xmlns="http://www.w3.org/2000/svg">
<path d="M59.3536 0H10.6464C4.79087 0 0 4.79087 0 10.6464V59.3536C0 65.2091 4.79087 70 10.6464 70H59.3536C65.2091 70 70 65.2091 70 59.3536V10.6464C70 4.79087 65.2091 0 59.3536 0ZM43.1179 35H37.6616C37.6616 43.6502 37.6616 54.2966 37.6616 54.2966H29.6768C29.6768 54.2966 29.6768 43.6502 29.6768 35H25.9506V28.2129H29.6768V23.6882C29.6768 20.4943 31.1407 15.5703 37.7947 15.5703H43.7833V22.2243C43.7833 22.2243 40.1901 22.2243 39.3916 22.2243C38.7262 22.2243 37.7947 22.6236 37.7947 24.0874V28.0798H43.9164L43.1179 35Z" fill="#024E28"/>
</svg>
