<?xml version="1.0" encoding="UTF-8" standalone="no"?>
<!-- Created with Inkscape (http://www.inkscape.org/) -->

<svg
   version="1.1"
   id="svg1"
   width="180"
   height="53.333599"
   viewBox="0 0 180 53.333599"
   sodipodi:docname="mac.svg"
   inkscape:version="1.3.2 (091e20ef0f, 2023-11-25)"
   xmlns:inkscape="http://www.inkscape.org/namespaces/inkscape"
   xmlns:sodipodi="http://sodipodi.sourceforge.net/DTD/sodipodi-0.dtd"
   xmlns="http://www.w3.org/2000/svg"
   xmlns:svg="http://www.w3.org/2000/svg">
  <sodipodi:namedview
     id="namedview1"
     pagecolor="#ffffff"
     bordercolor="#000000"
     borderopacity="0.25"
     inkscape:showpageshadow="2"
     inkscape:pageopacity="0.0"
     inkscape:pagecheckerboard="0"
     inkscape:deskcolor="#d1d1d1"
     inkscape:zoom="4.424978"
     inkscape:cx="90.056945"
     inkscape:cy="26.666799"
     inkscape:window-width="1982"
     inkscape:window-height="1211"
     inkscape:window-x="66"
     inkscape:window-y="32"
     inkscape:window-maximized="1"
     inkscape:current-layer="g18" />
  <defs
     id="defs1">
    <clipPath
       clipPathUnits="userSpaceOnUse"
       id="clipPath1">
      <path
         d="M 0,60 H 155 V 0 H 0 Z"
         id="path1" />
    </clipPath>
    <clipPath
       clipPathUnits="userSpaceOnUse"
       id="clipPath3">
      <path
         d="M 0,60 H 155 V 0 H 0 Z"
         transform="matrix(1.3333333,0,0,-1.3333333,0,80)"
         id="path3" />
    </clipPath>
    <clipPath
       clipPathUnits="userSpaceOnUse"
       id="clipPath5">
      <path
         d="M 0,60 H 155 V 0 H 0 Z"
         transform="translate(-140.0001,-10.000101)"
         id="path5" />
    </clipPath>
    <clipPath
       clipPathUnits="userSpaceOnUse"
       id="clipPath7">
      <path
         d="M 0,60 H 155 V 0 H 0 Z"
         transform="translate(-140.0001,-49.999901)"
         id="path7" />
    </clipPath>
    <clipPath
       clipPathUnits="userSpaceOnUse"
       id="clipPath9">
      <path
         d="M 0,60 H 155 V 0 H 0 Z"
         id="path9" />
    </clipPath>
    <clipPath
       clipPathUnits="userSpaceOnUse"
       id="clipPath11">
      <path
         d="M 0,60 H 155 V 0 H 0 Z"
         transform="translate(-30.717301,-30.575901)"
         id="path11" />
    </clipPath>
    <clipPath
       clipPathUnits="userSpaceOnUse"
       id="clipPath13">
      <path
         d="M 0,60 H 155 V 0 H 0 Z"
         transform="translate(-41.488201,-32.500101)"
         id="path13" />
    </clipPath>
    <clipPath
       clipPathUnits="userSpaceOnUse"
       id="clipPath15">
      <path
         d="M 0,60 H 155 V 0 H 0 Z"
         transform="translate(-20.0701,-40.722901)"
         id="path15" />
    </clipPath>
    <clipPath
       clipPathUnits="userSpaceOnUse"
       id="clipPath17">
      <path
         d="M 0,60 H 155 V 0 H 0 Z"
         transform="translate(-30.795901,-29.999101)"
         id="path17" />
    </clipPath>
    <clipPath
       clipPathUnits="userSpaceOnUse"
       id="clipPath19">
      <path
         d="M 0,60 H 155 V 0 H 0 Z"
         transform="translate(-81.302702,-41.504901)"
         id="path19" />
    </clipPath>
    <clipPath
       clipPathUnits="userSpaceOnUse"
       id="clipPath21">
      <path
         d="M 0,60 H 155 V 0 H 0 Z"
         transform="translate(-81.302702,-41.504901)"
         id="path21" />
    </clipPath>
    <clipPath
       clipPathUnits="userSpaceOnUse"
       id="clipPath23">
      <path
         d="M 0,60 H 155 V 0 H 0 Z"
         transform="translate(-87.971702,-39.211401)"
         id="path23" />
    </clipPath>
    <clipPath
       clipPathUnits="userSpaceOnUse"
       id="clipPath25">
      <path
         d="M 0,60 H 155 V 0 H 0 Z"
         transform="translate(-87.971702,-39.211401)"
         id="path25" />
    </clipPath>
    <clipPath
       clipPathUnits="userSpaceOnUse"
       id="clipPath27">
      <path
         d="M 0,60 H 155 V 0 H 0 Z"
         transform="translate(-92.999005,-40.328601)"
         id="path27" />
    </clipPath>
    <clipPath
       clipPathUnits="userSpaceOnUse"
       id="clipPath29">
      <path
         d="M 0,60 H 155 V 0 H 0 Z"
         transform="translate(-92.999005,-40.328601)"
         id="path29" />
    </clipPath>
    <clipPath
       clipPathUnits="userSpaceOnUse"
       id="clipPath31">
      <path
         d="M 0,60 H 155 V 0 H 0 Z"
         transform="translate(-100.4502,-37.138201)"
         id="path31" />
    </clipPath>
    <clipPath
       clipPathUnits="userSpaceOnUse"
       id="clipPath33">
      <path
         d="M 0,60 H 155 V 0 H 0 Z"
         transform="translate(-100.4502,-37.138201)"
         id="path33" />
    </clipPath>
    <clipPath
       clipPathUnits="userSpaceOnUse"
       id="clipPath35">
      <path
         d="M 0,60 H 155 V 0 H 0 Z"
         transform="translate(-101.06541,-38.373501)"
         id="path35" />
    </clipPath>
    <clipPath
       clipPathUnits="userSpaceOnUse"
       id="clipPath37">
      <path
         d="M 0,60 H 155 V 0 H 0 Z"
         transform="translate(-103.90431,-38.373501)"
         id="path37" />
    </clipPath>
    <clipPath
       clipPathUnits="userSpaceOnUse"
       id="clipPath39">
      <path
         d="M 0,60 H 155 V 0 H 0 Z"
         transform="translate(-117.3369,-37.777301)"
         id="path39" />
    </clipPath>
    <clipPath
       clipPathUnits="userSpaceOnUse"
       id="clipPath41">
      <path
         d="M 0,60 H 155 V 0 H 0 Z"
         transform="translate(-123.0088,-39.211401)"
         id="path41" />
    </clipPath>
    <clipPath
       clipPathUnits="userSpaceOnUse"
       id="clipPath43">
      <path
         d="M 0,60 H 155 V 0 H 0 Z"
         transform="translate(-123.0088,-39.211401)"
         id="path43" />
    </clipPath>
    <clipPath
       clipPathUnits="userSpaceOnUse"
       id="clipPath45">
      <path
         d="M 0,60 H 155 V 0 H 0 Z"
         transform="translate(-127.2432,-38.373501)"
         id="path45" />
    </clipPath>
    <clipPath
       clipPathUnits="userSpaceOnUse"
       id="clipPath47">
      <path
         d="M 0,60 H 155 V 0 H 0 Z"
         transform="translate(-135.2539,-42.036601)"
         id="path47" />
    </clipPath>
  </defs>
  <g
     id="g18"
     transform="matrix(1.5042071,0,0,1.3324957,2.5144865e-6,0.01679893)">
    <g
       id="g2">
      <path
         d="M 9.53468,0 C 9.16798,0 8.80568,0 8.43995,0.002 8.1338,0.004 7.83009,0.00981 7.52095,0.0147 A 13.21479,13.21479 0 0 0 5.5171,0.19141 6.6651,6.6651 0 0 0 3.61622,0.81841 6.43779,6.43779 0 0 0 1.99757,1.99707 6.25844,6.25844 0 0 0 0.81935,3.61816 a 6.60119,6.60119 0 0 0 -0.625,1.90332 12.993,12.993 0 0 0 -0.1792,2.002 C 0.00587,7.83008 0.00489,8.1377 0,8.44434 V 31.5586 c 0.00489,0.3105 0.00587,0.6113 0.01515,0.9219 a 12.99234,12.99234 0 0 0 0.1792,2.0019 6.58757,6.58757 0 0 0 0.625,1.9043 6.20777,6.20777 0 0 0 1.17822,1.6143 6.27446,6.27446 0 0 0 1.61865,1.1787 6.70087,6.70087 0 0 0 1.90088,0.6308 13.45487,13.45487 0 0 0 2.0039,0.1768 C 7.83009,39.9941 8.1338,39.998 8.44,39.998 8.80567,40 9.168,40 9.53468,40 h 100.60009 c 0.3594,0 0.7246,0 1.084,-0.002 0.3047,0 0.6172,-0.0039 0.9219,-0.0107 a 13.27905,13.27905 0 0 0 2,-0.1768 6.80427,6.80427 0 0 0 1.9082,-0.6308 6.27749,6.27749 0 0 0 1.6172,-1.1787 6.39485,6.39485 0 0 0 1.1816,-1.6143 6.60423,6.60423 0 0 0 0.6191,-1.9043 13.507,13.507 0 0 0 0.1856,-2.0019 c 0.004,-0.3106 0.004,-0.6114 0.004,-0.9219 0.008,-0.3633 0.008,-0.7246 0.008,-1.0938 V 9.53613 c 0,-0.36621 0,-0.72949 -0.008,-1.09179 0,-0.30664 0,-0.61426 -0.004,-0.9209 a 13.50724,13.50724 0 0 0 -0.1856,-2.002 6.61789,6.61789 0 0 0 -0.6191,-1.90332 6.46615,6.46615 0 0 0 -2.7988,-2.7998 6.7676,6.7676 0 0 0 -1.9082,-0.627 13.04391,13.04391 0 0 0 -2,-0.17676 c -0.3047,-0.00488 -0.6172,-0.01074 -0.9219,-0.01269 -0.3594,-0.002 -0.7246,-0.002 -1.084,-0.002 v 0"
         transform="translate(0,1.3e-4)"
         style="fill:#a6a6a6"
         id="path1-6" />
      <path
         d="m 111.21387,0.875 0.9131,0.0127 a 12.38493,12.38493 0 0 1 1.8584,0.16259 5.93833,5.93833 0 0 1 1.6709,0.54785 5.59375,5.59375 0 0 1 2.415,2.41993 5.76261,5.76261 0 0 1 0.5352,1.64892 12.99507,12.99507 0 0 1 0.1738,1.88721 c 0.003,0.2832 0.003,0.5874 0.003,0.89014 0.008,0.375 0.008,0.73193 0.008,1.09179 V 30.4648 c 0,0.3633 0,0.7178 -0.008,1.0752 0,0.3252 0,0.6231 -0.004,0.9297 a 12.73188,12.73188 0 0 1 -0.1709,1.8535 5.739,5.739 0 0 1 -0.54,1.67 5.48036,5.48036 0 0 1 -1.0156,1.3857 5.41292,5.41292 0 0 1 -1.3994,1.0225 5.86168,5.86168 0 0 1 -1.668,0.5498 12.54258,12.54258 0 0 1 -1.8692,0.1631 c -0.2929,0.0068 -0.5996,0.0107 -0.8974,0.0107 l -1.084,0.002 L 8.44483,39.125 c -0.30468,0 -0.602,-0.0039 -0.90429,-0.0107 A 12.6871,12.6871 0 0 1 5.6714,38.9512 5.88383,5.88383 0 0 1 4.01466,38.4033 5.40573,5.40573 0 0 1 2.61766,37.3867 5.3208,5.3208 0 0 1 1.59715,35.9902 5.72186,5.72186 0 0 1 1.05415,34.333 12.41352,12.41352 0 0 1 0.88765,32.458 C 0.88131,32.2471 0.873,31.5449 0.873,31.5449 V 8.44434 c 0,0 0.00885,-0.69141 0.0147,-0.89454 A 12.3704,12.3704 0 0 1 1.05323,5.67773 5.7555,5.7555 0 0 1 1.59669,4.01563 5.37349,5.37349 0 0 1 2.61183,2.61763 5.56543,5.56543 0 0 1 4.01417,1.59521 5.82309,5.82309 0 0 1 5.66749,1.05127 12.58586,12.58586 0 0 1 7.543,0.88721 L 8.44532,0.875"
         transform="translate(0,1.3e-4)"
         id="path2" />
    </g>
    <g
       id="_Group_"
       data-name=" Group ">
      <g
         id="_Group_2"
         data-name=" Group 2">
        <path
           id="_Path_"
           data-name=" Path "
           d="m 107.259,20.30068 a 4.94881,4.94881 0 0 1 2.35656,-4.15206 5.06566,5.06566 0 0 0 -3.99116,-2.15768 c -1.67924,-0.17626 -3.30719,1.00483 -4.1629,1.00483 -0.87227,0 -2.18977,-0.98733 -3.6085,-0.95814 a 5.3153,5.3153 0 0 0 -4.47292,2.72787 c -1.934,3.34842 -0.49141,8.26947 1.3612,10.97608 0.9269,1.32535 2.01018,2.8058 3.42763,2.7533 1.38706,-0.05753 1.9051,-0.88448 3.5794,-0.88448 1.65876,0 2.14479,0.88448 3.591,0.8511 1.48838,-0.02416 2.42613,-1.33124 3.32051,-2.66914 a 10.96189,10.96189 0 0 0 1.51842,-3.09251 4.78205,4.78205 0 0 1 -2.91924,-4.39917 z"
           transform="translate(0,1.3e-4)"
           style="fill:#ffffff" />
        <path
           id="_Path_2"
           data-name=" Path 2"
           d="m 104.52739,12.21089 a 4.87248,4.87248 0 0 0 1.11452,-3.49062 4.95746,4.95746 0 0 0 -3.20758,1.65961 4.63635,4.63635 0 0 0 -1.14371,3.36139 4.09905,4.09905 0 0 0 3.23677,-1.53038 z"
           transform="translate(0,1.3e-4)"
           style="fill:#ffffff" />
      </g>
    </g>
    <path
       d="m 67.40767,16.08363 h -0.65332 c -1.27246,0 -2.61426,-0.26123 -2.61426,-2.02148 a 9.83461,9.83461 0 0 1 0.54,-2.31738 l 0.8457,0.22656 -0.12207,0.39209 a 7.92511,7.92511 0 0 0 -0.35742,1.69871 c 0,1.21094 1.15918,1.21094 1.94336,1.21094 h 0.54883 c 0.3916,0 0.93164,-0.15674 0.93164,-0.65332 V 8.80824 h 0.93262 v 4.94922 a 1.53717,1.53717 0 0 0 0.63574,0.12158 h 0.32227 v 0.80176 h -0.32227 a 2.26872,2.26872 0 0 1 -0.63574,-0.0957 v 0.122 c 4e-5,0.4527 -0.34859,1.37653 -1.99508,1.37653 z"
       style="fill:#ffffff"
       id="path13-2" />
    <path
       d="m 73.49556,10.69056 v 2.44824 c 0,1.03662 -0.61914,1.542 -1.84766,1.542 h -1.44628 v -0.80176 h 1.41211 c 0.74023,0 0.94043,-0.32227 0.94043,-0.87109 v -2.31739 z m -2.335,5.94189 a 0.56249,0.56249 0 1 1 0.59277,-0.56641 0.55277,0.55277 0 0 1 -0.59274,0.56641 z m 1.46387,0 a 0.56246,0.56246 0 1 1 0.5918,-0.56641 0.55276,0.55276 0 0 1 -0.53751,0.5676 q -0.02713,7.4e-4 -0.05424,-0.0012 z"
       style="fill:#ffffff"
       id="path14-3" />
    <path
       d="m 74.19088,15.98792 a 3.48855,3.48855 0 0 0 0.40039,0.02588 c 0.76758,0 1.15039,-0.44434 1.15039,-1.3418 v -3.50244 h 0.94141 v 2.70947 h 0.8623 v 0.80176 h -0.87109 a 2.35047,2.35047 0 0 1 -0.60156,1.61182 2.215,2.215 0 0 1 -1.51562,0.51416 5.18281,5.18281 0 0 1 -0.59277,-0.04346 z m 1.97754,-5.66357 a 0.56249,0.56249 0 1 1 0.59277,-0.56641 0.55247,0.55247 0 0 1 -0.59277,0.56641 z"
       style="fill:#ffffff"
       id="path15-7" />
    <path
       d="m 80.63716,14.68079 a 2.34857,2.34857 0 0 1 -1.07129,-0.29639 2.60147,2.60147 0 0 1 -1.47266,0.29639 h -0.706 V 13.87903 H 78.146 c 0.71387,0 0.85352,-0.11328 0.85352,-0.63574 v -2.55273 h 0.93262 v 3.03174 a 1.588,1.588 0 0 0 0.70508,0.15674 h 0.584 V 14.6808 Z M 79.42623,9.81898 A 0.56249,0.56249 0 1 1 80.019,9.25257 0.55247,0.55247 0 0 1 79.42623,9.81898 Z"
       style="fill:#ffffff"
       id="path16-5" />
    <path
       d="m 83.45064,10.69056 v 2.44824 c 0,1.03662 -0.61816,1.542 -1.84668,1.542 h -0.541 v -0.80176 h 0.50587 c 0.74023,0 0.94043,-0.32227 0.94043,-0.87109 V 10.69056 Z M 82.0649,9.81898 A 0.56249,0.56249 0 1 1 82.65767,9.25257 0.55247,0.55247 0 0 1 82.0649,9.81898 Z m 1.46387,0 a 0.56249,0.56249 0 1 1 0.59277,-0.56641 0.55247,0.55247 0 0 1 -0.59277,0.56641 z"
       style="fill:#ffffff"
       id="path17-9" />
    <path
       d="m 89.526105,28.673038 q -0.289551,0 -0.688932,-0.04992 -1.028406,-0.139784 -2.066796,-0.559133 -1.03839,-0.41935 -1.797214,-1.158205 l 0.539164,-1.447755 q 0.319505,0.429334 1.028406,0.81873 0.708901,0.379412 1.537616,0.619041 0.828716,0.239628 1.537617,0.239628 0.189706,0 0.269582,-0.07988 0.08986,-0.08986 0.08986,-0.269582 0,-0.159752 -0.05991,-0.399381 -0.149768,-0.609056 -0.489241,-1.188158 -0.339474,-0.579102 -0.868654,-0.958514 -0.519195,-0.379412 -1.208127,-0.379412 -0.81873,0 -1.23808,0.589087 -0.41935,0.579102 -0.559133,1.248065 l -0.389397,1.128251 q -0.369427,0.958514 -0.938545,1.327941 -0.569117,0.369428 -1.387848,0.379412 l -0.798762,0.01 v -1.547601 h 0.439319 q 0.738855,0 1.14822,-0.21966 0.41935,-0.219659 0.668963,-0.688932 0.249613,-0.469272 0.489241,-1.218111 0.369428,-1.158205 0.998453,-1.847137 0.629024,-0.688932 1.607507,-0.688932 0.798762,0 1.447756,0.439319 0.648994,0.429335 1.108282,1.128251 0.469272,0.698917 0.708901,1.507663 0.249613,0.808746 0.249613,1.557585 0,0.499226 -0.159752,0.898607 -0.149768,0.399381 -0.429335,0.61904 -0.129799,0.09985 -0.339474,0.139784 -0.19969,0.04992 -0.449303,0.04992 z M 82.037714,28.54324 q -0.269582,0 -0.359443,-0.199691 -0.08986,-0.19969 -0.08986,-0.569118 0,-0.419349 0.08986,-0.599071 0.07988,-0.179721 0.359443,-0.179721 z m -5e-6,0 q -0.609056,0 -1.018421,-0.119815 Q 80.619907,28.303611 80.350325,28.053998 80.110696,27.824354 79.950944,27.48488 79.801176,27.145407 79.671377,26.466459 79.551563,25.787512 79.391811,24.539447 79.222074,23.091691 79.08229,22.053301 78.952492,21.004926 78.832677,20.106319 78.712863,19.207712 78.57308,18.179307 l 1.288003,-0.09985 q 0.06989,0.688932 0.149768,1.547601 0.08986,0.858669 0.19969,2.046827 0.119815,1.188158 0.279567,2.865558 0.09984,1.12825 0.19969,1.557585 0.10983,0.429334 0.309521,0.629025 0.269582,0.269582 1.03839,0.269582 z m 0,0 v -1.547601 q 0.279566,0 0.359443,0.179721 0.08986,0.179722 0.08986,0.599071 0,0.369428 -0.08986,0.569118 -0.08986,0.199691 -0.359443,0.199691 z M 71.973315,28.6331 q -2.526084,0 -3.664319,-0.868653 -1.138236,-0.878638 -1.138236,-2.815635 0,-0.878638 0.209675,-1.966951 l 0.888622,0.10983 q -0.139783,0.808746 -0.139783,1.377864 0,1.527632 0.958514,2.07678 0.958514,0.539164 3.065248,0.539164 0.169737,0 0.668963,0 0.499226,0 1.14822,-0.01 0.658978,-0.01 1.307972,-0.03994 0.499226,-0.01997 0.629025,-0.119814 0.139783,-0.10983 0.08986,-0.63901 -0.03994,-0.429334 -0.129799,-1.248065 -0.08986,-0.818731 -0.19969,-1.817183 -0.10983,-0.858669 -0.21966,-1.76726 -0.10983,-0.908591 -0.229644,-1.757276 -0.109829,-0.848684 -0.209675,-1.507662 l 1.288004,-0.08986 q 0.07988,0.698916 0.149767,1.447755 0.06989,0.738855 0.139784,1.47771 0.06989,0.738854 0.139783,1.427786 0.06989,0.828715 0.139783,1.647446 0.07988,0.808746 0.129799,1.427787 0.04992,0.609055 0.04992,0.838699 0,0.63901 -0.149768,1.14822 -0.149768,0.509211 -0.469273,0.768809 -0.229644,0.179721 -0.519195,0.239628 -0.289551,0.04992 -0.678947,0.06989 -0.549149,0.01997 -1.427787,0.02995 -0.878638,0.01997 -1.827167,0.01997 z m -0.399381,-3.714242 q -0.229644,0 -0.499226,-0.01 -0.269582,-0.01997 -0.539164,-0.05991 v -0.858669 q 0.219659,0.01 0.409365,0.01 0.199691,0 0.369427,0 1.028406,0 1.357895,-0.06989 0.339474,-0.06989 0.339474,-0.209675 0,-0.159752 -0.279567,-0.239629 -0.279566,-0.08986 -0.678947,-0.19969 -0.639009,-0.169737 -0.938545,-0.389396 -0.289551,-0.21966 -0.289551,-0.609056 0,-0.509211 0.389396,-0.968499 0.399381,-0.469272 0.94853,-0.788777 0.549148,-0.329489 1.008436,-0.41935 l 0.249613,0.918576 q -0.918576,0.269582 -1.387848,0.52918 -0.459288,0.259597 -0.459288,0.449303 0,0.179722 0.329489,0.299536 0.339474,0.10983 0.678948,0.209675 0.519195,0.159752 0.81873,0.379412 0.309521,0.209675 0.309521,0.718885 0,0.718886 -0.599072,1.018421 -0.589086,0.289551 -1.537616,0.289551 z M 57.585619,24.669245 v -1.218111 h 4.253406 v 1.218111 z m -27.00813,3.474614 -3.544505,-9.485295 h 1.717338 l 3.085217,8.616641 0.03994,0.828716 q -0.289551,0.03994 -0.629025,0.04992 -0.329489,0.01 -0.668963,-0.01 z m -5.621285,0.399381 0.04992,-0.63901 q 0.519195,-0.239628 1.208127,-0.389396 l -0.239629,0.668963 0.589087,-9.065945 0.149768,0.489241 -1.397833,-0.289551 0.04992,-0.658978 h 2.386301 l -0.519195,9.505264 -0.159753,-0.569118 1.447756,0.289551 -0.04992,0.658979 z m 6.919273,-0.439319 -1.008437,-0.21966 3.254954,-9.225697 h 1.278019 z m 2.09675,0.439319 0.04992,-0.63901 q 0.279567,-0.119814 0.63901,-0.209675 0.359442,-0.09985 0.72887,-0.169737 l -0.169737,0.589087 -0.509211,-9.455341 h 2.775697 l -0.04992,0.639009 q -0.549148,0.229644 -1.327941,0.379412 l 0.169737,-0.469273 0.589087,8.87624 -0.189706,-0.489242 1.258049,0.289551 -0.04992,0.658979 z m 9.07593,-1.078329 q 0,-0.828715 0.01997,-1.687384 0.01997,-0.868653 0.01997,-1.627477 v -0.878638 q 0,-1.417802 -1.377864,-1.417802 -0.908592,0 -1.6774,0.579103 l -0.639009,0.808746 q -0.02995,-0.848684 0.09985,-1.56757 1.337926,-0.748839 2.825619,-0.748839 2.346363,0 2.346363,2.236533 0,0.289551 -0.01,0.838699 -0.01,0.549149 -0.01997,1.188158 -0.01,0.629025 -0.01997,1.188158 -0.01,0.549149 -0.01,0.848685 z m -3.654335,-4.223452 0.139783,-1.138236 1.527632,-0.579102 -0.818731,1.717338 z m 1.607508,5.451548 q -0.94853,0 -1.507663,-0.539164 -0.559133,-0.549148 -0.559133,-1.467724 0,-1.98692 2.885526,-2.595976 l 1.627477,-0.339474 0.09985,0.858669 -1.427787,0.179722 q -0.828715,0.09985 -1.198142,0.449303 -0.359443,0.349458 -0.359443,1.018421 0,1.317957 1.138235,1.317957 0.798762,0 1.857121,-0.748839 l 0.179721,0.359443 q -1.208127,1.507662 -2.735758,1.507662 z m 2.446207,-0.119814 -0.339473,-1.297988 1.497678,-0.429334 v 1.088313 l -0.21966,-0.399381 1.218112,0.349458 -0.04992,0.579102 q -0.81873,0.129799 -2.106734,0.10983 z m 6.889319,0.129799 q -1.757275,0 -2.69582,-0.968499 -0.938545,-0.968498 -0.938545,-2.765712 0,-1.857121 0.968498,-2.955418 0.978483,-1.098298 2.625929,-1.098298 1.208127,0 2.146672,0.539165 0.07988,0.379411 0.119815,0.858668 0.03994,0.469273 0.01,0.988468 h -0.798762 l -0.81873,-1.717338 0.858669,0.748839 q -0.379412,-0.229644 -0.818731,-0.359442 -0.439319,-0.129799 -0.808746,-0.129799 -0.828716,0 -1.278019,0.718885 -0.449304,0.708901 -0.449304,2.036843 0,2.945433 2.40627,2.945433 0.958514,0 1.946982,-0.369427 l -0.06989,0.938545 q -0.958514,0.589087 -2.40627,0.589087 z"
       id="text1"
       style="font-size:20.4483px;font-family:'Markazi Text';-inkscape-font-specification:'Markazi Text';direction:rtl;fill:#ffffff;stroke-width:0.766812"
       transform="scale(0.94119384,1.0624804)"
       aria-label="ماك - Mac" />
  </g>
</svg>
