<?xml version="1.0" encoding="UTF-8" standalone="no"?>
<!-- Created with Inkscape (http://www.inkscape.org/) -->

<svg
   version="1.1"
   id="svg1"
   width="180"
   height="53.333599"
   viewBox="0 0 180 53.333599"
   xmlns="http://www.w3.org/2000/svg"
   xmlns:svg="http://www.w3.org/2000/svg">
  <defs
     id="defs1">
    <clipPath
       clipPathUnits="userSpaceOnUse"
       id="clipPath1">
      <path
         d="M 0,60 H 155 V 0 H 0 Z"
         id="path1" />
    </clipPath>
    <clipPath
       clipPathUnits="userSpaceOnUse"
       id="clipPath3">
      <path
         d="M 0,60 H 155 V 0 H 0 Z"
         transform="matrix(1.3333333,0,0,-1.3333333,0,80)"
         id="path3" />
    </clipPath>
    <clipPath
       clipPathUnits="userSpaceOnUse"
       id="clipPath5">
      <path
         d="M 0,60 H 155 V 0 H 0 Z"
         transform="translate(-140.0001,-10.000101)"
         id="path5" />
    </clipPath>
    <clipPath
       clipPathUnits="userSpaceOnUse"
       id="clipPath7">
      <path
         d="M 0,60 H 155 V 0 H 0 Z"
         transform="translate(-140.0001,-49.999901)"
         id="path7" />
    </clipPath>
    <clipPath
       clipPathUnits="userSpaceOnUse"
       id="clipPath9">
      <path
         d="M 0,60 H 155 V 0 H 0 Z"
         id="path9" />
    </clipPath>
    <clipPath
       clipPathUnits="userSpaceOnUse"
       id="clipPath11">
      <path
         d="M 0,60 H 155 V 0 H 0 Z"
         transform="translate(-30.717301,-30.575901)"
         id="path11" />
    </clipPath>
    <clipPath
       clipPathUnits="userSpaceOnUse"
       id="clipPath13">
      <path
         d="M 0,60 H 155 V 0 H 0 Z"
         transform="translate(-41.488201,-32.500101)"
         id="path13" />
    </clipPath>
    <clipPath
       clipPathUnits="userSpaceOnUse"
       id="clipPath15">
      <path
         d="M 0,60 H 155 V 0 H 0 Z"
         transform="translate(-20.0701,-40.722901)"
         id="path15" />
    </clipPath>
    <clipPath
       clipPathUnits="userSpaceOnUse"
       id="clipPath17">
      <path
         d="M 0,60 H 155 V 0 H 0 Z"
         transform="translate(-30.795901,-29.999101)"
         id="path17" />
    </clipPath>
    <clipPath
       clipPathUnits="userSpaceOnUse"
       id="clipPath19">
      <path
         d="M 0,60 H 155 V 0 H 0 Z"
         transform="translate(-81.302702,-41.504901)"
         id="path19" />
    </clipPath>
    <clipPath
       clipPathUnits="userSpaceOnUse"
       id="clipPath21">
      <path
         d="M 0,60 H 155 V 0 H 0 Z"
         transform="translate(-81.302702,-41.504901)"
         id="path21" />
    </clipPath>
    <clipPath
       clipPathUnits="userSpaceOnUse"
       id="clipPath23">
      <path
         d="M 0,60 H 155 V 0 H 0 Z"
         transform="translate(-87.971702,-39.211401)"
         id="path23" />
    </clipPath>
    <clipPath
       clipPathUnits="userSpaceOnUse"
       id="clipPath25">
      <path
         d="M 0,60 H 155 V 0 H 0 Z"
         transform="translate(-87.971702,-39.211401)"
         id="path25" />
    </clipPath>
    <clipPath
       clipPathUnits="userSpaceOnUse"
       id="clipPath27">
      <path
         d="M 0,60 H 155 V 0 H 0 Z"
         transform="translate(-92.999005,-40.328601)"
         id="path27" />
    </clipPath>
    <clipPath
       clipPathUnits="userSpaceOnUse"
       id="clipPath29">
      <path
         d="M 0,60 H 155 V 0 H 0 Z"
         transform="translate(-92.999005,-40.328601)"
         id="path29" />
    </clipPath>
    <clipPath
       clipPathUnits="userSpaceOnUse"
       id="clipPath31">
      <path
         d="M 0,60 H 155 V 0 H 0 Z"
         transform="translate(-100.4502,-37.138201)"
         id="path31" />
    </clipPath>
    <clipPath
       clipPathUnits="userSpaceOnUse"
       id="clipPath33">
      <path
         d="M 0,60 H 155 V 0 H 0 Z"
         transform="translate(-100.4502,-37.138201)"
         id="path33" />
    </clipPath>
    <clipPath
       clipPathUnits="userSpaceOnUse"
       id="clipPath35">
      <path
         d="M 0,60 H 155 V 0 H 0 Z"
         transform="translate(-101.06541,-38.373501)"
         id="path35" />
    </clipPath>
    <clipPath
       clipPathUnits="userSpaceOnUse"
       id="clipPath37">
      <path
         d="M 0,60 H 155 V 0 H 0 Z"
         transform="translate(-103.90431,-38.373501)"
         id="path37" />
    </clipPath>
    <clipPath
       clipPathUnits="userSpaceOnUse"
       id="clipPath39">
      <path
         d="M 0,60 H 155 V 0 H 0 Z"
         transform="translate(-117.3369,-37.777301)"
         id="path39" />
    </clipPath>
    <clipPath
       clipPathUnits="userSpaceOnUse"
       id="clipPath41">
      <path
         d="M 0,60 H 155 V 0 H 0 Z"
         transform="translate(-123.0088,-39.211401)"
         id="path41" />
    </clipPath>
    <clipPath
       clipPathUnits="userSpaceOnUse"
       id="clipPath43">
      <path
         d="M 0,60 H 155 V 0 H 0 Z"
         transform="translate(-123.0088,-39.211401)"
         id="path43" />
    </clipPath>
    <clipPath
       clipPathUnits="userSpaceOnUse"
       id="clipPath45">
      <path
         d="M 0,60 H 155 V 0 H 0 Z"
         transform="translate(-127.2432,-38.373501)"
         id="path45" />
    </clipPath>
    <clipPath
       clipPathUnits="userSpaceOnUse"
       id="clipPath47">
      <path
         d="M 0,60 H 155 V 0 H 0 Z"
         transform="translate(-135.2539,-42.036601)"
         id="path47" />
    </clipPath>
  </defs>
  <g
     id="layer-MC0"
     transform="translate(-13.333471,-13.333201)">
    <path
       id="path4"
       d="m 0,0 h -125 c -2.75,0 -5,2.25 -5,5 v 30 c 0,2.75 2.25,5 5,5 H 0 c 2.75,0 5,-2.25 5,-5 V 5 C 5,2.25 2.75,0 0,0"
       style="fill:#000000;fill-opacity:1;fill-rule:nonzero;stroke:none"
       transform="matrix(1.3333333,0,0,-1.3333333,186.6668,66.666533)"
       clip-path="url(#clipPath5)" />
    <path
       id="path6"
       d="m 0,0 h -125 c -2.75,0 -5,-2.25 -5,-5 v -30 c 0,-2.75 2.25,-5 5,-5 H 0 c 2.75,0 5,2.25 5,5 V -5 C 5,-2.25 2.75,0 0,0 m 0,-0.8 c 2.316,0 4.2,-1.884 4.2,-4.2 v -30 c 0,-2.316 -1.884,-4.2 -4.2,-4.2 h -125 c -2.316,0 -4.2,1.884 -4.2,4.2 v 30 c 0,2.316 1.884,4.2 4.2,4.2 z"
       style="fill:#a6a6a6;fill-opacity:1;fill-rule:nonzero;stroke:none"
       transform="matrix(1.3333333,0,0,-1.3333333,186.6668,13.333467)"
       clip-path="url(#clipPath7)" />
    <path
       id="path8"
       d="m 116.936,20 h 1.866 v 12.501 h -1.866 z m 16.807,7.998 -2.139,-5.42 h -0.064 l -2.22,5.42 h -2.01 l 3.329,-7.575 -1.897,-4.214 h 1.945 l 5.131,11.789 z M 123.161,21.42 c -0.612,0 -1.464,0.305 -1.464,1.062 0,0.964 1.061,1.334 1.978,1.334 0.82,0 1.207,-0.177 1.705,-0.418 -0.145,-1.158 -1.142,-1.978 -2.219,-1.978 m 0.225,6.851 c -1.351,0 -2.751,-0.595 -3.329,-1.914 l 1.656,-0.691 c 0.354,0.691 1.013,0.917 1.705,0.917 0.965,0 1.946,-0.579 1.962,-1.609 v -0.128 c -0.338,0.193 -1.061,0.482 -1.946,0.482 -1.785,0 -3.603,-0.981 -3.603,-2.814 0,-1.673 1.464,-2.751 3.104,-2.751 1.255,0 1.947,0.563 2.381,1.223 h 0.064 v -0.965 h 1.801 v 4.793 c 0,2.219 -1.656,3.457 -3.795,3.457 M 111.854,26.476 H 109.2 v 4.285 h 2.654 c 1.395,0 2.187,-1.155 2.187,-2.142 0,-0.969 -0.792,-2.143 -2.187,-2.143 m -0.048,6.025 h -4.471 V 20 h 1.865 v 4.736 h 2.606 c 2.068,0 4.101,1.498 4.101,3.883 0,2.385 -2.033,3.882 -4.101,3.882 M 87.425,21.418 c -1.289,0 -2.368,1.079 -2.368,2.561 0,1.498 1.079,2.594 2.368,2.594 1.273,0 2.271,-1.096 2.271,-2.594 0,-1.482 -0.998,-2.561 -2.271,-2.561 m 2.143,5.88 h -0.065 c -0.419,0.499 -1.224,0.95 -2.239,0.95 -2.127,0 -4.076,-1.868 -4.076,-4.269 0,-2.384 1.949,-4.237 4.076,-4.237 1.015,0 1.82,0.451 2.239,0.967 h 0.065 v -0.613 c 0,-1.627 -0.87,-2.497 -2.272,-2.497 -1.144,0 -1.853,0.822 -2.143,1.515 l -1.627,-0.677 c 0.467,-1.128 1.708,-2.513 3.77,-2.513 2.191,0 4.044,1.289 4.044,4.43 v 7.637 H 89.568 Z M 92.629,20 h 1.869 v 12.502 h -1.869 z m 4.623,4.124 c -0.048,1.643 1.273,2.481 2.223,2.481 0.742,0 1.37,-0.37 1.579,-0.902 z m 5.8,1.418 c -0.354,0.95 -1.434,2.706 -3.641,2.706 -2.191,0 -4.011,-1.723 -4.011,-4.253 0,-2.384 1.804,-4.253 4.22,-4.253 1.95,0 3.078,1.192 3.545,1.885 l -1.45,0.967 c -0.483,-0.709 -1.144,-1.176 -2.095,-1.176 -0.95,0 -1.627,0.435 -2.062,1.288 l 5.687,2.353 z m -45.308,1.401 v -1.804 h 4.317 c -0.129,-1.015 -0.467,-1.756 -0.982,-2.271 -0.629,-0.629 -1.612,-1.322 -3.335,-1.322 -2.659,0 -4.737,2.143 -4.737,4.801 0,2.659 2.078,4.801 4.737,4.801 1.434,0 2.481,-0.564 3.254,-1.289 l 1.273,1.273 c -1.08,1.031 -2.513,1.821 -4.527,1.821 -3.641,0 -6.702,-2.965 -6.702,-6.606 0,-3.641 3.061,-6.605 6.702,-6.605 1.965,0 3.447,0.645 4.607,1.853 1.193,1.192 1.563,2.867 1.563,4.221 0,0.419 -0.032,0.805 -0.097,1.127 z m 11.079,-5.525 c -1.289,0 -2.401,1.063 -2.401,2.577 0,1.531 1.112,2.578 2.401,2.578 1.288,0 2.4,-1.047 2.4,-2.578 0,-1.514 -1.112,-2.577 -2.4,-2.577 m 0,6.83 c -2.353,0 -4.27,-1.788 -4.27,-4.253 0,-2.449 1.917,-4.253 4.27,-4.253 2.352,0 4.269,1.804 4.269,4.253 0,2.465 -1.917,4.253 -4.269,4.253 m 9.313,-6.83 c -1.289,0 -2.401,1.063 -2.401,2.577 0,1.531 1.112,2.578 2.401,2.578 1.289,0 2.4,-1.047 2.4,-2.578 0,-1.514 -1.111,-2.577 -2.4,-2.577 m 0,6.83 c -2.352,0 -4.269,-1.788 -4.269,-4.253 0,-2.449 1.917,-4.253 4.269,-4.253 2.352,0 4.269,1.804 4.269,4.253 0,2.465 -1.917,4.253 -4.269,4.253"
       style="fill:#ffffff;fill-opacity:1;fill-rule:nonzero;stroke:none"
       transform="matrix(1.3333333,0,0,-1.3333333,0,80)"
       clip-path="url(#clipPath9)" />
    <path
       id="path10"
       d="m 0,0 -10.647,-11.3 c 10e-4,-0.002 10e-4,-0.005 0.002,-0.007 0.327,-1.227 1.447,-2.13 2.777,-2.13 0.532,0 1.031,0.144 1.459,0.396 l 0.034,0.02 11.984,6.915 z"
       style="fill:#ea4335;fill-opacity:1;fill-rule:nonzero;stroke:none"
       transform="matrix(1.3333333,0,0,-1.3333333,40.9564,39.232133)"
       clip-path="url(#clipPath11)" />
    <path
       id="path12"
       d="m 0,0 -0.01,0.007 -5.174,2.999 -5.829,-5.187 5.85,-5.848 5.146,2.969 c 0.902,0.488 1.515,1.439 1.515,2.535 C 1.498,-1.435 0.894,-0.489 0,0"
       style="fill:#fbbc04;fill-opacity:1;fill-rule:nonzero;stroke:none"
       transform="matrix(1.3333333,0,0,-1.3333333,55.3176,36.666533)"
       clip-path="url(#clipPath13)" />
    <path
       id="path14"
       d="m 0,0 c -0.064,-0.236 -0.098,-0.484 -0.098,-0.74 v -19.968 c 0,-0.256 0.034,-0.504 0.099,-0.739 l 11.012,11.011 z"
       style="fill:#4285f4;fill-opacity:1;fill-rule:nonzero;stroke:none"
       transform="matrix(1.3333333,0,0,-1.3333333,26.760133,25.7028)"
       clip-path="url(#clipPath15)" />
    <path
       id="path16"
       d="m 0,0 5.51,5.509 -11.97,6.94 c -0.435,0.261 -0.943,0.411 -1.486,0.411 -1.33,0 -2.452,-0.905 -2.779,-2.133 0,-10e-4 -0.001,-0.002 -0.001,-0.003 z"
       style="fill:#34a853;fill-opacity:1;fill-rule:nonzero;stroke:none"
       transform="matrix(1.3333333,0,0,-1.3333333,41.0612,40.0012)"
       clip-path="url(#clipPath17)" />
    <path
       id="path18"
       d="m 0,0 c -0.172,-0.247 -0.408,-0.516 -0.709,-0.806 -0.326,0.258 -0.59,0.496 -0.79,0.715 0.376,0.376 0.632,0.644 0.769,0.805 C -0.498,0.46 -0.255,0.222 0,0 m -0.876,-6.01 c -0.627,0 -1.115,0.179 -1.467,0.54 -0.35,0.359 -0.526,0.869 -0.526,1.528 0,0.211 0.014,0.41 0.041,0.599 0.026,0.187 0.085,0.462 0.174,0.824 l 0.403,-0.097 c -0.083,-0.322 -0.124,-0.583 -0.124,-0.784 0,-0.537 0.135,-0.955 0.403,-1.254 0.269,-0.299 0.643,-0.449 1.122,-0.449 0.545,0 1.087,0.133 1.628,0.398 0.541,0.265 0.903,0.591 1.085,0.977 -0.479,1.05 -0.719,1.749 -0.719,2.1 0,0.191 0.053,0.362 0.161,0.516 0.107,0.154 0.294,0.31 0.558,0.467 0.032,-0.257 0.117,-0.732 0.252,-1.423 l 0.006,-0.043 c 0.243,-0.121 0.51,-0.183 0.801,-0.183 0.06,0 0.091,-0.03 0.091,-0.091 V -3.04 c 0,-0.061 -0.031,-0.091 -0.091,-0.091 -0.248,0 -0.47,0.045 -0.666,0.134 L 2.271,-3.314 C 2.271,-3.765 2.128,-4.197 1.842,-4.608 1.556,-5.02 1.163,-5.357 0.666,-5.618 0.168,-5.879 -0.346,-6.01 -0.876,-6.01"
       style="fill:#ffffff;fill-opacity:1;fill-rule:nonzero;stroke:none"
       transform="matrix(1.3333333,0,0,-1.3333333,108.4036,24.660133)"
       clip-path="url(#clipPath19)" />
    <path
       id="path20"
       d="m 0,0 c -0.172,-0.247 -0.408,-0.516 -0.709,-0.806 -0.326,0.258 -0.59,0.496 -0.79,0.715 0.376,0.376 0.632,0.644 0.769,0.805 C -0.498,0.46 -0.255,0.222 0,0 Z m -0.876,-6.01 c -0.627,0 -1.115,0.179 -1.467,0.54 -0.35,0.359 -0.526,0.869 -0.526,1.528 0,0.211 0.014,0.41 0.041,0.599 0.026,0.187 0.085,0.462 0.174,0.824 l 0.403,-0.097 c -0.083,-0.322 -0.124,-0.583 -0.124,-0.784 0,-0.537 0.135,-0.955 0.403,-1.254 0.269,-0.299 0.643,-0.449 1.122,-0.449 0.545,0 1.087,0.133 1.628,0.398 0.541,0.265 0.903,0.591 1.085,0.977 -0.479,1.05 -0.719,1.749 -0.719,2.1 0,0.191 0.053,0.362 0.161,0.516 0.107,0.154 0.294,0.31 0.558,0.467 0.032,-0.257 0.117,-0.732 0.252,-1.423 l 0.006,-0.043 c 0.243,-0.121 0.51,-0.183 0.801,-0.183 0.06,0 0.091,-0.03 0.091,-0.091 V -3.04 c 0,-0.061 -0.031,-0.091 -0.091,-0.091 -0.248,0 -0.47,0.045 -0.666,0.134 L 2.271,-3.314 C 2.271,-3.765 2.128,-4.197 1.842,-4.608 1.556,-5.02 1.163,-5.357 0.666,-5.618 0.168,-5.879 -0.346,-6.01 -0.876,-6.01 Z"
       style="fill:none;stroke:#ffffff;stroke-width:0.2;stroke-linecap:butt;stroke-linejoin:miter;stroke-miterlimit:10;stroke-dasharray:none;stroke-opacity:1"
       transform="matrix(1.3333333,0,0,-1.3333333,108.4036,24.660133)"
       clip-path="url(#clipPath21)" />
    <path
       id="path22"
       d="m 0,0 c -0.015,0.455 -0.101,0.89 -0.258,1.305 -0.157,0.416 -0.313,0.623 -0.467,0.623 -0.14,0 -0.27,-0.041 -0.392,-0.123 C -1.239,1.722 -1.36,1.595 -1.482,1.423 -1.605,1.252 -1.769,0.962 -1.977,0.553 -1.461,0.271 -0.802,0.086 0,0 m -3.695,-0.838 c -0.061,0 -0.092,0.03 -0.092,0.091 v 0.656 c 0,0.061 0.031,0.091 0.092,0.091 0.279,0 0.514,0.067 0.706,0.201 0.191,0.135 0.357,0.34 0.497,0.615 l 0.221,0.441 c 0.282,0.601 0.558,1.026 0.829,1.273 0.27,0.247 0.567,0.37 0.889,0.37 0.215,0 0.429,-0.13 0.642,-0.392 C 0.302,2.247 0.474,1.91 0.604,1.499 0.735,1.087 0.801,0.69 0.801,0.306 c 0,-0.225 -0.042,-0.43 -0.124,-0.615 -0.082,-0.184 -0.228,-0.36 -0.435,-0.529 -0.441,0 -0.909,0.061 -1.405,0.183 -0.496,0.121 -0.91,0.279 -1.243,0.472 -0.172,-0.232 -0.36,-0.4 -0.565,-0.501 -0.203,-0.103 -0.445,-0.154 -0.724,-0.154"
       style="fill:#ffffff;fill-opacity:1;fill-rule:nonzero;stroke:none"
       transform="matrix(1.3333333,0,0,-1.3333333,117.2956,27.718133)"
       clip-path="url(#clipPath23)" />
    <path
       id="path24"
       d="m 0,0 c -0.015,0.455 -0.101,0.89 -0.258,1.305 -0.157,0.416 -0.313,0.623 -0.467,0.623 -0.14,0 -0.27,-0.041 -0.392,-0.123 C -1.239,1.722 -1.36,1.595 -1.482,1.423 -1.605,1.252 -1.769,0.962 -1.977,0.553 -1.461,0.271 -0.802,0.086 0,0 Z m -3.695,-0.838 c -0.061,0 -0.092,0.03 -0.092,0.091 v 0.656 c 0,0.061 0.031,0.091 0.092,0.091 0.279,0 0.514,0.067 0.706,0.201 0.191,0.135 0.357,0.34 0.497,0.615 l 0.221,0.441 c 0.282,0.601 0.558,1.026 0.829,1.273 0.27,0.247 0.567,0.37 0.889,0.37 0.215,0 0.429,-0.13 0.642,-0.392 C 0.302,2.247 0.474,1.91 0.604,1.499 0.735,1.087 0.801,0.69 0.801,0.306 c 0,-0.225 -0.042,-0.43 -0.124,-0.615 -0.082,-0.184 -0.228,-0.36 -0.435,-0.529 -0.441,0 -0.909,0.061 -1.405,0.183 -0.496,0.121 -0.91,0.279 -1.243,0.472 -0.172,-0.232 -0.36,-0.4 -0.565,-0.501 -0.203,-0.103 -0.445,-0.154 -0.724,-0.154 z"
       style="fill:none;stroke:#ffffff;stroke-width:0.2;stroke-linecap:butt;stroke-linejoin:miter;stroke-miterlimit:10;stroke-dasharray:none;stroke-opacity:1"
       transform="matrix(1.3333333,0,0,-1.3333333,117.2956,27.718133)"
       clip-path="url(#clipPath25)" />
    <path
       id="path26"
       d="M 0,0 C 0.294,-0.251 0.62,-0.417 0.979,-0.499 1.336,-0.582 1.731,-0.626 2.165,-0.634 L 1.881,1.139 1.875,1.16 C 0.998,0.859 0.373,0.473 0,0 m 1.783,-1.525 c -0.4,0.035 -0.676,0.07 -0.826,0.104 -0.15,0.034 -0.308,0.083 -0.471,0.146 -0.163,0.062 -0.33,0.142 -0.502,0.238 -0.171,0.097 -0.301,0.19 -0.389,0.28 -0.088,0.089 -0.132,0.172 -0.132,0.247 0,0.096 0.05,0.263 0.148,0.499 0.099,0.237 0.18,0.41 0.244,0.521 0.112,0.204 0.354,0.44 0.728,0.707 0.374,0.266 0.771,0.484 1.19,0.652 L 1.735,2.17 c 0.254,0.229 0.521,0.421 0.8,0.575 l 0.103,-3.572 c 0.333,-0.193 0.714,-0.29 1.143,-0.29 0.062,0 0.092,-0.03 0.092,-0.091 v -0.656 c 0,-0.061 -0.03,-0.091 -0.092,-0.091 -0.443,0 -0.803,0.083 -1.079,0.25 -0.275,0.166 -0.434,0.402 -0.477,0.706 l -0.039,0.231 z"
       style="fill:#ffffff;fill-opacity:1;fill-rule:nonzero;stroke:none"
       transform="matrix(1.3333333,0,0,-1.3333333,123.99867,26.228533)"
       clip-path="url(#clipPath27)" />
    <path
       id="path28"
       d="M 0,0 C 0.294,-0.251 0.62,-0.417 0.979,-0.499 1.336,-0.582 1.731,-0.626 2.165,-0.634 L 1.881,1.139 1.875,1.16 C 0.998,0.859 0.373,0.473 0,0 Z m 1.783,-1.525 c -0.4,0.035 -0.676,0.07 -0.826,0.104 -0.15,0.034 -0.308,0.083 -0.471,0.146 -0.163,0.062 -0.33,0.142 -0.502,0.238 -0.171,0.097 -0.301,0.19 -0.389,0.28 -0.088,0.089 -0.132,0.172 -0.132,0.247 0,0.096 0.05,0.263 0.148,0.499 0.099,0.237 0.18,0.41 0.244,0.521 0.112,0.204 0.354,0.44 0.728,0.707 0.374,0.266 0.771,0.484 1.19,0.652 L 1.735,2.17 c 0.254,0.229 0.521,0.421 0.8,0.575 l 0.103,-3.572 c 0.333,-0.193 0.714,-0.29 1.143,-0.29 0.062,0 0.092,-0.03 0.092,-0.091 v -0.656 c 0,-0.061 -0.03,-0.091 -0.092,-0.091 -0.443,0 -0.803,0.083 -1.079,0.25 -0.275,0.166 -0.434,0.402 -0.477,0.706 l -0.039,0.231 z"
       style="fill:none;stroke:#ffffff;stroke-width:0.2;stroke-linecap:butt;stroke-linejoin:miter;stroke-miterlimit:10;stroke-dasharray:none;stroke-opacity:1"
       transform="matrix(1.3333333,0,0,-1.3333333,123.99867,26.228533)"
       clip-path="url(#clipPath29)" />
    <path
       id="path30"
       d="m 0,0 c -0.133,-0.208 -0.354,-0.457 -0.661,-0.747 -0.318,0.255 -0.561,0.478 -0.726,0.672 0.165,0.15 0.402,0.397 0.709,0.741 C -0.613,0.594 -0.387,0.372 0,0 m -1.66,-0.156 c -0.133,-0.211 -0.35,-0.462 -0.651,-0.752 -0.329,0.265 -0.572,0.489 -0.73,0.672 0.193,0.179 0.43,0.426 0.709,0.741 0.064,-0.068 0.289,-0.288 0.672,-0.661 m 0.982,3.894 c 0.101,0 0.191,-0.028 0.27,-0.086 -0.133,-0.319 -0.249,-0.585 -0.35,-0.8 -0.1,-0.215 -0.161,-0.335 -0.182,-0.36 0.247,-0.157 0.477,-0.266 0.69,-0.327 0.213,-0.061 0.444,-0.092 0.695,-0.092 0.061,0 0.092,-0.03 0.092,-0.091 V 1.327 c 0,-0.061 -0.031,-0.092 -0.092,-0.092 -0.676,0 -1.256,0.213 -1.74,0.639 L -1.473,1.638 c -0.074,-0.082 -0.34,-0.17 -0.796,-0.263 -0.458,-0.093 -0.906,-0.14 -1.346,-0.14 -0.061,0 -0.092,0.031 -0.092,0.092 v 0.655 c 0,0.061 0.031,0.091 0.092,0.091 0.455,0 0.841,0.02 1.157,0.059 0.317,0.04 0.541,0.106 0.672,0.199 0.131,0.093 0.323,0.385 0.577,0.875 l 0.193,0.355 c 0.065,0.118 0.178,0.177 0.338,0.177"
       style="fill:#ffffff;fill-opacity:1;fill-rule:nonzero;stroke:none"
       transform="matrix(1.3333333,0,0,-1.3333333,133.9336,30.4824)"
       clip-path="url(#clipPath31)" />
    <path
       id="path32"
       d="m 0,0 c -0.133,-0.208 -0.354,-0.457 -0.661,-0.747 -0.318,0.255 -0.561,0.478 -0.726,0.672 0.165,0.15 0.402,0.397 0.709,0.741 C -0.613,0.594 -0.387,0.372 0,0 Z m -1.66,-0.156 c -0.133,-0.211 -0.35,-0.462 -0.651,-0.752 -0.329,0.265 -0.572,0.489 -0.73,0.672 0.193,0.179 0.43,0.426 0.709,0.741 0.064,-0.068 0.289,-0.288 0.672,-0.661 z m 0.982,3.894 c 0.101,0 0.191,-0.028 0.27,-0.086 -0.133,-0.319 -0.249,-0.585 -0.35,-0.8 -0.1,-0.215 -0.161,-0.335 -0.182,-0.36 0.247,-0.157 0.477,-0.266 0.69,-0.327 0.213,-0.061 0.444,-0.092 0.695,-0.092 0.061,0 0.092,-0.03 0.092,-0.091 V 1.327 c 0,-0.061 -0.031,-0.092 -0.092,-0.092 -0.676,0 -1.256,0.213 -1.74,0.639 L -1.473,1.638 c -0.074,-0.082 -0.34,-0.17 -0.796,-0.263 -0.458,-0.093 -0.906,-0.14 -1.346,-0.14 -0.061,0 -0.092,0.031 -0.092,0.092 v 0.655 c 0,0.061 0.031,0.091 0.092,0.091 0.455,0 0.841,0.02 1.157,0.059 0.317,0.04 0.541,0.106 0.672,0.199 0.131,0.093 0.323,0.385 0.577,0.875 l 0.193,0.355 c 0.065,0.118 0.178,0.177 0.338,0.177 z"
       style="fill:none;stroke:#ffffff;stroke-width:0.2;stroke-linecap:butt;stroke-linejoin:miter;stroke-miterlimit:10;stroke-dasharray:none;stroke-opacity:1"
       transform="matrix(1.3333333,0,0,-1.3333333,133.9336,30.4824)"
       clip-path="url(#clipPath33)" />
    <path
       id="path34"
       d="m 0,0 c -0.061,0 -0.092,0.03 -0.092,0.091 v 0.656 c 0,0.061 0.031,0.091 0.092,0.091 0.415,0 0.816,0.095 1.203,0.285 C 1.107,1.896 0.99,3.289 0.854,5.301 L 0.746,6.768 C 0.965,6.993 1.212,7.197 1.488,7.38 1.534,6.374 1.572,4.793 1.601,2.637 L 1.639,1.128 c 0.332,-0.193 0.714,-0.29 1.143,-0.29 0.065,0 0.097,-0.03 0.097,-0.091 V 0.091 C 2.879,0.03 2.847,0 2.782,0 2.245,0 1.824,0.131 1.52,0.392 1.252,0.242 1.01,0.139 0.795,0.083 0.58,0.028 0.316,0 0,0"
       style="fill:#ffffff;fill-opacity:1;fill-rule:nonzero;stroke:#ffffff;stroke-width:0.2;stroke-linecap:butt;stroke-linejoin:miter;stroke-miterlimit:10;stroke-dasharray:none;stroke-opacity:1"
       transform="matrix(1.3333333,0,0,-1.3333333,134.75387,28.835333)"
       clip-path="url(#clipPath35)" />
    <path
       id="path36"
       d="m 0,0 c -0.061,0 -0.092,0.03 -0.092,0.091 v 0.656 c 0,0.061 0.031,0.091 0.092,0.091 0.473,0 0.93,0.011 1.369,0.032 C 1.194,0.985 1.041,1.142 0.91,1.343 0.779,1.544 0.715,1.756 0.715,1.982 c 0,0.312 0.085,0.639 0.255,0.983 0.17,0.344 0.389,0.621 0.657,0.832 0.269,0.212 0.55,0.317 0.844,0.317 0.254,0 0.498,-0.063 0.73,-0.19 C 3.434,3.796 3.704,3.599 4.012,3.33 L 3.818,2.981 C 3.529,3.092 3.317,3.162 3.186,3.19 3.053,3.219 2.907,3.233 2.75,3.233 2.299,3.233 1.828,3.099 1.338,2.831 1.338,2.516 1.413,2.228 1.565,1.969 1.718,1.709 1.939,1.501 2.229,1.343 2.52,1.185 2.861,1.096 3.255,1.074 3.534,1.131 3.801,1.2 4.055,1.281 4.31,1.361 4.666,1.491 5.124,1.67 5.225,1.577 5.274,1.447 5.274,1.278 L 5.264,1.166 C 5.221,0.919 5.068,0.763 4.807,0.698 3.934,0.48 3.273,0.33 2.825,0.25 2.378,0.169 1.918,0.107 1.447,0.064 0.977,0.021 0.494,0 0,0"
       style="fill:#ffffff;fill-opacity:1;fill-rule:nonzero;stroke:#ffffff;stroke-width:0.2;stroke-linecap:butt;stroke-linejoin:miter;stroke-miterlimit:10;stroke-dasharray:none;stroke-opacity:1"
       transform="matrix(1.3333333,0,0,-1.3333333,138.53907,28.835333)"
       clip-path="url(#clipPath37)" />
    <path
       id="path38"
       d="M 0,0 -0.279,1.778 C -0.59,3.64 -0.795,4.937 -0.893,5.67 c -0.099,0.731 -0.148,1.214 -0.148,1.447 0,0.247 0.057,0.438 0.172,0.574 0.114,0.137 0.297,0.231 0.547,0.285 0.011,-0.046 0.021,-0.089 0.033,-0.129 0.01,-0.039 0.13,-0.431 0.359,-1.176 L -0.187,6.445 -0.166,6.273 0.193,3.013 C 0.258,2.537 0.307,2.081 0.339,1.644 L 0.344,1.622 C 0.58,1.497 0.85,1.434 1.15,1.434 c 0.061,0 0.091,-0.03 0.091,-0.091 V 0.687 c 0,-0.06 -0.03,-0.091 -0.091,-0.091 -0.265,0 -0.515,0.059 -0.752,0.177 l 0.01,-0.359 c 0,-0.455 -0.14,-0.889 -0.424,-1.3 -0.283,-0.412 -0.671,-0.748 -1.166,-1.007 -0.494,-0.26 -1.004,-0.39 -1.53,-0.39 -0.627,0 -1.115,0.18 -1.466,0.54 -0.351,0.36 -0.527,0.87 -0.527,1.528 0,0.212 0.014,0.411 0.041,0.599 0.026,0.188 0.085,0.463 0.174,0.825 L -4.087,1.112 C -4.169,0.79 -4.211,0.528 -4.211,0.328 c 0,-0.537 0.135,-0.955 0.403,-1.254 0.269,-0.299 0.643,-0.449 1.122,-0.449 0.348,0 0.709,0.061 1.086,0.183 0.375,0.121 0.707,0.288 0.994,0.499 C -0.32,-0.481 -0.117,-0.25 0,0"
       style="fill:#ffffff;fill-opacity:1;fill-rule:nonzero;stroke:#ffffff;stroke-width:0.2;stroke-linecap:butt;stroke-linejoin:miter;stroke-miterlimit:10;stroke-dasharray:none;stroke-opacity:1"
       transform="matrix(1.3333333,0,0,-1.3333333,156.4492,29.630267)"
       clip-path="url(#clipPath39)" />
    <path
       id="path40"
       d="M 0,0 C 0.956,0 1.936,0.314 2.938,0.94 2.716,1.327 2.449,1.628 2.138,1.845 1.826,2.062 1.518,2.17 1.214,2.17 0.866,2.17 0.453,2.001 -0.027,1.662 -0.507,1.324 -1.027,0.824 -1.59,0.161 -1.017,0.054 -0.487,0 0,0 m 4.179,-0.838 c -0.312,0 -0.621,0.063 -0.929,0.188 -0.309,0.126 -0.561,0.29 -0.758,0.494 -0.326,-0.211 -0.724,-0.378 -1.195,-0.499 -0.471,-0.122 -0.941,-0.183 -1.41,-0.183 -0.53,0 -1.074,0.057 -1.633,0.172 -0.559,0.115 -1.002,0.263 -1.332,0.446 l -0.188,-0.215 c -0.243,-0.269 -0.644,-0.403 -1.203,-0.403 -0.06,0 -0.092,0.03 -0.092,0.091 v 0.656 c 0,0.061 0.032,0.091 0.092,0.091 0.329,0 0.591,0.06 0.784,0.18 0.194,0.12 0.389,0.352 0.585,0.696 l 0.172,0.306 c 0.076,0.129 0.193,0.193 0.35,0.193 0.103,0 0.189,-0.034 0.258,-0.102 C -2.475,0.9 -2.584,0.646 -2.648,0.51 -2.469,0.424 -2.286,0.353 -2.1,0.295 -0.696,2.157 0.5,3.088 1.488,3.088 1.695,3.088 1.951,3.004 2.256,2.836 2.561,2.668 2.832,2.451 3.072,2.186 3.313,1.921 3.432,1.689 3.432,1.488 3.432,1.044 3.291,0.648 3.008,0.301 3.341,0.1 3.731,0 4.179,0 4.243,0 4.275,-0.03 4.275,-0.091 v -0.656 c 0,-0.061 -0.032,-0.091 -0.096,-0.091"
       style="fill:#ffffff;fill-opacity:1;fill-rule:nonzero;stroke:none"
       transform="matrix(1.3333333,0,0,-1.3333333,164.01173,27.718133)"
       clip-path="url(#clipPath41)" />
    <path
       id="path42"
       d="M 0,0 C 0.956,0 1.936,0.314 2.938,0.94 2.716,1.327 2.449,1.628 2.138,1.845 1.826,2.062 1.518,2.17 1.214,2.17 0.866,2.17 0.453,2.001 -0.027,1.662 -0.507,1.324 -1.027,0.824 -1.59,0.161 -1.017,0.054 -0.487,0 0,0 Z m 4.179,-0.838 c -0.312,0 -0.621,0.063 -0.929,0.188 -0.309,0.126 -0.561,0.29 -0.758,0.494 -0.326,-0.211 -0.724,-0.378 -1.195,-0.499 -0.471,-0.122 -0.941,-0.183 -1.41,-0.183 -0.53,0 -1.074,0.057 -1.633,0.172 -0.559,0.115 -1.002,0.263 -1.332,0.446 l -0.188,-0.215 c -0.243,-0.269 -0.644,-0.403 -1.203,-0.403 -0.06,0 -0.092,0.03 -0.092,0.091 v 0.656 c 0,0.061 0.032,0.091 0.092,0.091 0.329,0 0.591,0.06 0.784,0.18 0.194,0.12 0.389,0.352 0.585,0.696 l 0.172,0.306 c 0.076,0.129 0.193,0.193 0.35,0.193 0.103,0 0.189,-0.034 0.258,-0.102 C -2.475,0.9 -2.584,0.646 -2.648,0.51 -2.469,0.424 -2.286,0.353 -2.1,0.295 -0.696,2.157 0.5,3.088 1.488,3.088 1.695,3.088 1.951,3.004 2.256,2.836 2.561,2.668 2.832,2.451 3.072,2.186 3.313,1.921 3.432,1.689 3.432,1.488 3.432,1.044 3.291,0.648 3.008,0.301 3.341,0.1 3.731,0 4.179,0 4.243,0 4.275,-0.03 4.275,-0.091 v -0.656 c 0,-0.061 -0.032,-0.091 -0.096,-0.091 z"
       style="fill:none;stroke:#ffffff;stroke-width:0.2;stroke-linecap:butt;stroke-linejoin:miter;stroke-miterlimit:10;stroke-dasharray:none;stroke-opacity:1"
       transform="matrix(1.3333333,0,0,-1.3333333,164.01173,27.718133)"
       clip-path="url(#clipPath43)" />
    <path
       id="path44"
       d="m 0,0 c -0.061,0 -0.092,0.03 -0.092,0.091 v 0.656 c 0,0.061 0.031,0.091 0.092,0.091 1.078,0 1.925,0.093 2.541,0.279 l 0.611,0.21 C 3.568,1.484 3.938,1.592 4.26,1.649 3.973,1.792 3.689,1.975 3.41,2.197 3.113,2.43 2.873,2.592 2.688,2.683 2.504,2.774 2.314,2.82 2.121,2.82 1.771,2.82 1.455,2.73 1.176,2.551 L 0.918,2.39 c -0.107,0.108 -0.16,0.251 -0.16,0.43 0,0.276 0.121,0.497 0.365,0.666 0.243,0.168 0.564,0.252 0.961,0.252 0.232,0 0.468,-0.05 0.706,-0.15 C 3.028,3.488 3.305,3.323 3.62,3.094 4.003,2.811 4.329,2.599 4.598,2.457 4.866,2.316 5.139,2.215 5.414,2.154 5.689,2.093 6.091,2.063 6.617,2.063 L 6.198,1.251 C 5.969,1.28 5.764,1.3 5.58,1.311 L 5.543,1.316 5.317,1.311 C 5.063,1.311 4.82,1.273 4.59,1.198 4.358,1.123 4,0.96 3.513,0.709 2.965,0.426 2.47,0.237 2.027,0.143 1.585,0.047 0.909,0 0,0"
       style="fill:#ffffff;fill-opacity:1;fill-rule:nonzero;stroke:#ffffff;stroke-width:0.2;stroke-linecap:butt;stroke-linejoin:miter;stroke-miterlimit:10;stroke-dasharray:none;stroke-opacity:1"
       transform="matrix(1.3333333,0,0,-1.3333333,169.6576,28.835333)"
       clip-path="url(#clipPath45)" />
    <path
       id="path46"
       d="M 0,0 V -0.687 C 0,-1.396 -0.025,-2.358 -0.075,-3.572 L -0.58,-3.663 c -0.047,2.571 -0.147,4.705 -0.301,6.402 l -0.005,0.14 c 0,0.233 0.058,0.418 0.174,0.556 0.116,0.138 0.3,0.231 0.551,0.282 C -0.15,3.67 -0.14,3.628 -0.129,3.588 -0.118,3.548 0.002,3.156 0.232,2.412 L -0.064,2.159 -0.06,2.105 C -0.02,1.318 0,0.616 0,0"
       style="fill:#ffffff;fill-opacity:1;fill-rule:nonzero;stroke:#ffffff;stroke-width:0.2;stroke-linecap:butt;stroke-linejoin:miter;stroke-miterlimit:10;stroke-dasharray:none;stroke-opacity:1"
       transform="matrix(1.3333333,0,0,-1.3333333,180.33853,23.9512)"
       clip-path="url(#clipPath47)" />
  </g>
</svg>
