<svg width="70" height="70" viewBox="0 0 70 70" fill="none" xmlns="http://www.w3.org/2000/svg">
<g clip-path="url(#clip0_511_6)">
<path fill-rule="evenodd" clip-rule="evenodd" d="M10.6464 0H59.3536C65.2091 0 70 4.79087 70 10.6464V59.3536C70 65.2091 65.2091 70 59.3536 70H10.6464C4.79087 70 0 65.2091 0 59.3536V10.6464C0 4.79087 4.79087 0 10.6464 0ZM55.8008 12.2599L39.2338 31.5177H39.2328L57.2512 57.7401H43.9996L31.866 40.0819L16.6749 57.7401H12.7488L30.123 37.5454L12.7488 12.2599H26.0004L37.4898 28.9812L51.8749 12.2599H55.8008ZM32.0961 35.2503L33.8565 37.7682V37.7691L45.8465 54.9191H51.8768L37.1836 33.9021L35.4232 31.3842L24.1197 15.2154H18.0895L32.0961 35.2503Z" fill="#024E28"/>
</g>
<defs>
<clipPath id="clip0_511_6">
<rect width="70" height="70" fill="white"/>
</clipPath>
</defs>
</svg>
