<?xml version="1.0" encoding="UTF-8" standalone="no"?>
<!-- Created with Inkscape (http://www.inkscape.org/) -->

<svg
   version="1.1"
   id="svg1"
   width="180"
   height="53.333599"
   viewBox="0 0 180 53.333599"
   sodipodi:docname="windows.svg"
   inkscape:version="1.3.2 (091e20ef0f, 2023-11-25)"
   xmlns:inkscape="http://www.inkscape.org/namespaces/inkscape"
   xmlns:sodipodi="http://sodipodi.sourceforge.net/DTD/sodipodi-0.dtd"
   xmlns="http://www.w3.org/2000/svg"
   xmlns:svg="http://www.w3.org/2000/svg">
  <sodipodi:namedview
     id="namedview1"
     pagecolor="#ffffff"
     bordercolor="#000000"
     borderopacity="0.25"
     inkscape:showpageshadow="2"
     inkscape:pageopacity="0.0"
     inkscape:pagecheckerboard="0"
     inkscape:deskcolor="#d1d1d1"
     inkscape:zoom="4.424978"
     inkscape:cx="90.056945"
     inkscape:cy="26.666799"
     inkscape:window-width="1982"
     inkscape:window-height="1211"
     inkscape:window-x="66"
     inkscape:window-y="32"
     inkscape:window-maximized="1"
     inkscape:current-layer="layer-MC0" />
  <defs
     id="defs1">
    <clipPath
       clipPathUnits="userSpaceOnUse"
       id="clipPath1">
      <path
         d="M 0,60 H 155 V 0 H 0 Z"
         id="path1" />
    </clipPath>
    <clipPath
       clipPathUnits="userSpaceOnUse"
       id="clipPath3">
      <path
         d="M 0,60 H 155 V 0 H 0 Z"
         transform="matrix(1.3333333,0,0,-1.3333333,0,80)"
         id="path3" />
    </clipPath>
    <clipPath
       clipPathUnits="userSpaceOnUse"
       id="clipPath5">
      <path
         d="M 0,60 H 155 V 0 H 0 Z"
         transform="translate(-140.0001,-10.000101)"
         id="path5" />
    </clipPath>
    <clipPath
       clipPathUnits="userSpaceOnUse"
       id="clipPath7">
      <path
         d="M 0,60 H 155 V 0 H 0 Z"
         transform="translate(-140.0001,-49.999901)"
         id="path7" />
    </clipPath>
    <clipPath
       clipPathUnits="userSpaceOnUse"
       id="clipPath9">
      <path
         d="M 0,60 H 155 V 0 H 0 Z"
         id="path9" />
    </clipPath>
    <clipPath
       clipPathUnits="userSpaceOnUse"
       id="clipPath11">
      <path
         d="M 0,60 H 155 V 0 H 0 Z"
         transform="translate(-30.717301,-30.575901)"
         id="path11" />
    </clipPath>
    <clipPath
       clipPathUnits="userSpaceOnUse"
       id="clipPath13">
      <path
         d="M 0,60 H 155 V 0 H 0 Z"
         transform="translate(-41.488201,-32.500101)"
         id="path13" />
    </clipPath>
    <clipPath
       clipPathUnits="userSpaceOnUse"
       id="clipPath15">
      <path
         d="M 0,60 H 155 V 0 H 0 Z"
         transform="translate(-20.0701,-40.722901)"
         id="path15" />
    </clipPath>
    <clipPath
       clipPathUnits="userSpaceOnUse"
       id="clipPath17">
      <path
         d="M 0,60 H 155 V 0 H 0 Z"
         transform="translate(-30.795901,-29.999101)"
         id="path17" />
    </clipPath>
    <clipPath
       clipPathUnits="userSpaceOnUse"
       id="clipPath19">
      <path
         d="M 0,60 H 155 V 0 H 0 Z"
         transform="translate(-81.302702,-41.504901)"
         id="path19" />
    </clipPath>
    <clipPath
       clipPathUnits="userSpaceOnUse"
       id="clipPath21">
      <path
         d="M 0,60 H 155 V 0 H 0 Z"
         transform="translate(-81.302702,-41.504901)"
         id="path21" />
    </clipPath>
    <clipPath
       clipPathUnits="userSpaceOnUse"
       id="clipPath23">
      <path
         d="M 0,60 H 155 V 0 H 0 Z"
         transform="translate(-87.971702,-39.211401)"
         id="path23" />
    </clipPath>
    <clipPath
       clipPathUnits="userSpaceOnUse"
       id="clipPath25">
      <path
         d="M 0,60 H 155 V 0 H 0 Z"
         transform="translate(-87.971702,-39.211401)"
         id="path25" />
    </clipPath>
    <clipPath
       clipPathUnits="userSpaceOnUse"
       id="clipPath27">
      <path
         d="M 0,60 H 155 V 0 H 0 Z"
         transform="translate(-92.999005,-40.328601)"
         id="path27" />
    </clipPath>
    <clipPath
       clipPathUnits="userSpaceOnUse"
       id="clipPath29">
      <path
         d="M 0,60 H 155 V 0 H 0 Z"
         transform="translate(-92.999005,-40.328601)"
         id="path29" />
    </clipPath>
    <clipPath
       clipPathUnits="userSpaceOnUse"
       id="clipPath31">
      <path
         d="M 0,60 H 155 V 0 H 0 Z"
         transform="translate(-100.4502,-37.138201)"
         id="path31" />
    </clipPath>
    <clipPath
       clipPathUnits="userSpaceOnUse"
       id="clipPath33">
      <path
         d="M 0,60 H 155 V 0 H 0 Z"
         transform="translate(-100.4502,-37.138201)"
         id="path33" />
    </clipPath>
    <clipPath
       clipPathUnits="userSpaceOnUse"
       id="clipPath35">
      <path
         d="M 0,60 H 155 V 0 H 0 Z"
         transform="translate(-101.06541,-38.373501)"
         id="path35" />
    </clipPath>
    <clipPath
       clipPathUnits="userSpaceOnUse"
       id="clipPath37">
      <path
         d="M 0,60 H 155 V 0 H 0 Z"
         transform="translate(-103.90431,-38.373501)"
         id="path37" />
    </clipPath>
    <clipPath
       clipPathUnits="userSpaceOnUse"
       id="clipPath39">
      <path
         d="M 0,60 H 155 V 0 H 0 Z"
         transform="translate(-117.3369,-37.777301)"
         id="path39" />
    </clipPath>
    <clipPath
       clipPathUnits="userSpaceOnUse"
       id="clipPath41">
      <path
         d="M 0,60 H 155 V 0 H 0 Z"
         transform="translate(-123.0088,-39.211401)"
         id="path41" />
    </clipPath>
    <clipPath
       clipPathUnits="userSpaceOnUse"
       id="clipPath43">
      <path
         d="M 0,60 H 155 V 0 H 0 Z"
         transform="translate(-123.0088,-39.211401)"
         id="path43" />
    </clipPath>
    <clipPath
       clipPathUnits="userSpaceOnUse"
       id="clipPath45">
      <path
         d="M 0,60 H 155 V 0 H 0 Z"
         transform="translate(-127.2432,-38.373501)"
         id="path45" />
    </clipPath>
    <clipPath
       clipPathUnits="userSpaceOnUse"
       id="clipPath47">
      <path
         d="M 0,60 H 155 V 0 H 0 Z"
         transform="translate(-135.2539,-42.036601)"
         id="path47" />
    </clipPath>
  </defs>
  <g
     id="layer-MC0"
     transform="translate(-13.333471,-13.333201)">
    <path
       id="path4"
       d="m 0,0 h -125 c -2.75,0 -5,2.25 -5,5 v 30 c 0,2.75 2.25,5 5,5 H 0 c 2.75,0 5,-2.25 5,-5 V 5 C 5,2.25 2.75,0 0,0"
       style="fill:#000000;fill-opacity:1;fill-rule:nonzero;stroke:none"
       transform="matrix(1.3333333,0,0,-1.3333333,186.6668,66.666533)"
       clip-path="url(#clipPath5)" />
    <path
       id="path6"
       d="m 0,0 h -125 c -2.75,0 -5,-2.25 -5,-5 v -30 c 0,-2.75 2.25,-5 5,-5 H 0 c 2.75,0 5,2.25 5,5 V -5 C 5,-2.25 2.75,0 0,0 m 0,-0.8 c 2.316,0 4.2,-1.884 4.2,-4.2 v -30 c 0,-2.316 -1.884,-4.2 -4.2,-4.2 h -125 c -2.316,0 -4.2,1.884 -4.2,4.2 v 30 c 0,2.316 1.884,4.2 4.2,4.2 z"
       style="fill:#a6a6a6;fill-opacity:1;fill-rule:nonzero;stroke:none"
       transform="matrix(1.3333333,0,0,-1.3333333,186.6668,13.333467)"
       clip-path="url(#clipPath7)" />
    <path
       id="path26"
       d="M 0,0 C 0.294,-0.251 0.62,-0.417 0.979,-0.499 1.336,-0.582 1.731,-0.626 2.165,-0.634 L 1.881,1.139 1.875,1.16 C 0.998,0.859 0.373,0.473 0,0 m 1.783,-1.525 c -0.4,0.035 -0.676,0.07 -0.826,0.104 -0.15,0.034 -0.308,0.083 -0.471,0.146 -0.163,0.062 -0.33,0.142 -0.502,0.238 -0.171,0.097 -0.301,0.19 -0.389,0.28 -0.088,0.089 -0.132,0.172 -0.132,0.247 0,0.096 0.05,0.263 0.148,0.499 0.099,0.237 0.18,0.41 0.244,0.521 0.112,0.204 0.354,0.44 0.728,0.707 0.374,0.266 0.771,0.484 1.19,0.652 L 1.735,2.17 c 0.254,0.229 0.521,0.421 0.8,0.575 l 0.103,-3.572 c 0.333,-0.193 0.714,-0.29 1.143,-0.29 0.062,0 0.092,-0.03 0.092,-0.091 v -0.656 c 0,-0.061 -0.03,-0.091 -0.092,-0.091 -0.443,0 -0.803,0.083 -1.079,0.25 -0.275,0.166 -0.434,0.402 -0.477,0.706 l -0.039,0.231 z"
       style="fill:#ffffff;fill-opacity:1;fill-rule:nonzero;stroke:none"
       transform="matrix(1.3333333,0,0,-1.3333333,123.99867,26.228533)"
       clip-path="url(#clipPath27)" />
    <path
       id="path28"
       d="M 0,0 C 0.294,-0.251 0.62,-0.417 0.979,-0.499 1.336,-0.582 1.731,-0.626 2.165,-0.634 L 1.881,1.139 1.875,1.16 C 0.998,0.859 0.373,0.473 0,0 Z m 1.783,-1.525 c -0.4,0.035 -0.676,0.07 -0.826,0.104 -0.15,0.034 -0.308,0.083 -0.471,0.146 -0.163,0.062 -0.33,0.142 -0.502,0.238 -0.171,0.097 -0.301,0.19 -0.389,0.28 -0.088,0.089 -0.132,0.172 -0.132,0.247 0,0.096 0.05,0.263 0.148,0.499 0.099,0.237 0.18,0.41 0.244,0.521 0.112,0.204 0.354,0.44 0.728,0.707 0.374,0.266 0.771,0.484 1.19,0.652 L 1.735,2.17 c 0.254,0.229 0.521,0.421 0.8,0.575 l 0.103,-3.572 c 0.333,-0.193 0.714,-0.29 1.143,-0.29 0.062,0 0.092,-0.03 0.092,-0.091 v -0.656 c 0,-0.061 -0.03,-0.091 -0.092,-0.091 -0.443,0 -0.803,0.083 -1.079,0.25 -0.275,0.166 -0.434,0.402 -0.477,0.706 l -0.039,0.231 z"
       style="fill:none;stroke:#ffffff;stroke-width:0.2;stroke-linecap:butt;stroke-linejoin:miter;stroke-miterlimit:10;stroke-dasharray:none;stroke-opacity:1"
       transform="matrix(1.3333333,0,0,-1.3333333,123.99867,26.228533)"
       clip-path="url(#clipPath29)" />
    <path
       id="path30"
       d="m 0,0 c -0.133,-0.208 -0.354,-0.457 -0.661,-0.747 -0.318,0.255 -0.561,0.478 -0.726,0.672 0.165,0.15 0.402,0.397 0.709,0.741 C -0.613,0.594 -0.387,0.372 0,0 m -1.66,-0.156 c -0.133,-0.211 -0.35,-0.462 -0.651,-0.752 -0.329,0.265 -0.572,0.489 -0.73,0.672 0.193,0.179 0.43,0.426 0.709,0.741 0.064,-0.068 0.289,-0.288 0.672,-0.661 m 0.982,3.894 c 0.101,0 0.191,-0.028 0.27,-0.086 -0.133,-0.319 -0.249,-0.585 -0.35,-0.8 -0.1,-0.215 -0.161,-0.335 -0.182,-0.36 0.247,-0.157 0.477,-0.266 0.69,-0.327 0.213,-0.061 0.444,-0.092 0.695,-0.092 0.061,0 0.092,-0.03 0.092,-0.091 V 1.327 c 0,-0.061 -0.031,-0.092 -0.092,-0.092 -0.676,0 -1.256,0.213 -1.74,0.639 L -1.473,1.638 c -0.074,-0.082 -0.34,-0.17 -0.796,-0.263 -0.458,-0.093 -0.906,-0.14 -1.346,-0.14 -0.061,0 -0.092,0.031 -0.092,0.092 v 0.655 c 0,0.061 0.031,0.091 0.092,0.091 0.455,0 0.841,0.02 1.157,0.059 0.317,0.04 0.541,0.106 0.672,0.199 0.131,0.093 0.323,0.385 0.577,0.875 l 0.193,0.355 c 0.065,0.118 0.178,0.177 0.338,0.177"
       style="fill:#ffffff;fill-opacity:1;fill-rule:nonzero;stroke:none"
       transform="matrix(1.3333333,0,0,-1.3333333,133.9336,30.4824)"
       clip-path="url(#clipPath31)" />
    <path
       id="path32"
       d="m 0,0 c -0.133,-0.208 -0.354,-0.457 -0.661,-0.747 -0.318,0.255 -0.561,0.478 -0.726,0.672 0.165,0.15 0.402,0.397 0.709,0.741 C -0.613,0.594 -0.387,0.372 0,0 Z m -1.66,-0.156 c -0.133,-0.211 -0.35,-0.462 -0.651,-0.752 -0.329,0.265 -0.572,0.489 -0.73,0.672 0.193,0.179 0.43,0.426 0.709,0.741 0.064,-0.068 0.289,-0.288 0.672,-0.661 z m 0.982,3.894 c 0.101,0 0.191,-0.028 0.27,-0.086 -0.133,-0.319 -0.249,-0.585 -0.35,-0.8 -0.1,-0.215 -0.161,-0.335 -0.182,-0.36 0.247,-0.157 0.477,-0.266 0.69,-0.327 0.213,-0.061 0.444,-0.092 0.695,-0.092 0.061,0 0.092,-0.03 0.092,-0.091 V 1.327 c 0,-0.061 -0.031,-0.092 -0.092,-0.092 -0.676,0 -1.256,0.213 -1.74,0.639 L -1.473,1.638 c -0.074,-0.082 -0.34,-0.17 -0.796,-0.263 -0.458,-0.093 -0.906,-0.14 -1.346,-0.14 -0.061,0 -0.092,0.031 -0.092,0.092 v 0.655 c 0,0.061 0.031,0.091 0.092,0.091 0.455,0 0.841,0.02 1.157,0.059 0.317,0.04 0.541,0.106 0.672,0.199 0.131,0.093 0.323,0.385 0.577,0.875 l 0.193,0.355 c 0.065,0.118 0.178,0.177 0.338,0.177 z"
       style="fill:none;stroke:#ffffff;stroke-width:0.2;stroke-linecap:butt;stroke-linejoin:miter;stroke-miterlimit:10;stroke-dasharray:none;stroke-opacity:1"
       transform="matrix(1.3333333,0,0,-1.3333333,133.9336,30.4824)"
       clip-path="url(#clipPath33)" />
    <path
       id="path34"
       d="m 0,0 c -0.061,0 -0.092,0.03 -0.092,0.091 v 0.656 c 0,0.061 0.031,0.091 0.092,0.091 0.415,0 0.816,0.095 1.203,0.285 C 1.107,1.896 0.99,3.289 0.854,5.301 L 0.746,6.768 C 0.965,6.993 1.212,7.197 1.488,7.38 1.534,6.374 1.572,4.793 1.601,2.637 L 1.639,1.128 c 0.332,-0.193 0.714,-0.29 1.143,-0.29 0.065,0 0.097,-0.03 0.097,-0.091 V 0.091 C 2.879,0.03 2.847,0 2.782,0 2.245,0 1.824,0.131 1.52,0.392 1.252,0.242 1.01,0.139 0.795,0.083 0.58,0.028 0.316,0 0,0"
       style="fill:#ffffff;fill-opacity:1;fill-rule:nonzero;stroke:#ffffff;stroke-width:0.2;stroke-linecap:butt;stroke-linejoin:miter;stroke-miterlimit:10;stroke-dasharray:none;stroke-opacity:1"
       transform="matrix(1.3333333,0,0,-1.3333333,134.75387,28.835333)"
       clip-path="url(#clipPath35)" />
    <path
       id="path36"
       d="m 0,0 c -0.061,0 -0.092,0.03 -0.092,0.091 v 0.656 c 0,0.061 0.031,0.091 0.092,0.091 0.473,0 0.93,0.011 1.369,0.032 C 1.194,0.985 1.041,1.142 0.91,1.343 0.779,1.544 0.715,1.756 0.715,1.982 c 0,0.312 0.085,0.639 0.255,0.983 0.17,0.344 0.389,0.621 0.657,0.832 0.269,0.212 0.55,0.317 0.844,0.317 0.254,0 0.498,-0.063 0.73,-0.19 C 3.434,3.796 3.704,3.599 4.012,3.33 L 3.818,2.981 C 3.529,3.092 3.317,3.162 3.186,3.19 3.053,3.219 2.907,3.233 2.75,3.233 2.299,3.233 1.828,3.099 1.338,2.831 1.338,2.516 1.413,2.228 1.565,1.969 1.718,1.709 1.939,1.501 2.229,1.343 2.52,1.185 2.861,1.096 3.255,1.074 3.534,1.131 3.801,1.2 4.055,1.281 4.31,1.361 4.666,1.491 5.124,1.67 5.225,1.577 5.274,1.447 5.274,1.278 L 5.264,1.166 C 5.221,0.919 5.068,0.763 4.807,0.698 3.934,0.48 3.273,0.33 2.825,0.25 2.378,0.169 1.918,0.107 1.447,0.064 0.977,0.021 0.494,0 0,0"
       style="fill:#ffffff;fill-opacity:1;fill-rule:nonzero;stroke:#ffffff;stroke-width:0.2;stroke-linecap:butt;stroke-linejoin:miter;stroke-miterlimit:10;stroke-dasharray:none;stroke-opacity:1"
       transform="matrix(1.3333333,0,0,-1.3333333,138.53907,28.835333)"
       clip-path="url(#clipPath37)" />
    <path
       id="path38"
       d="M 0,0 -0.279,1.778 C -0.59,3.64 -0.795,4.937 -0.893,5.67 c -0.099,0.731 -0.148,1.214 -0.148,1.447 0,0.247 0.057,0.438 0.172,0.574 0.114,0.137 0.297,0.231 0.547,0.285 0.011,-0.046 0.021,-0.089 0.033,-0.129 0.01,-0.039 0.13,-0.431 0.359,-1.176 L -0.187,6.445 -0.166,6.273 0.193,3.013 C 0.258,2.537 0.307,2.081 0.339,1.644 L 0.344,1.622 C 0.58,1.497 0.85,1.434 1.15,1.434 c 0.061,0 0.091,-0.03 0.091,-0.091 V 0.687 c 0,-0.06 -0.03,-0.091 -0.091,-0.091 -0.265,0 -0.515,0.059 -0.752,0.177 l 0.01,-0.359 c 0,-0.455 -0.14,-0.889 -0.424,-1.3 -0.283,-0.412 -0.671,-0.748 -1.166,-1.007 -0.494,-0.26 -1.004,-0.39 -1.53,-0.39 -0.627,0 -1.115,0.18 -1.466,0.54 -0.351,0.36 -0.527,0.87 -0.527,1.528 0,0.212 0.014,0.411 0.041,0.599 0.026,0.188 0.085,0.463 0.174,0.825 L -4.087,1.112 C -4.169,0.79 -4.211,0.528 -4.211,0.328 c 0,-0.537 0.135,-0.955 0.403,-1.254 0.269,-0.299 0.643,-0.449 1.122,-0.449 0.348,0 0.709,0.061 1.086,0.183 0.375,0.121 0.707,0.288 0.994,0.499 C -0.32,-0.481 -0.117,-0.25 0,0"
       style="fill:#ffffff;fill-opacity:1;fill-rule:nonzero;stroke:#ffffff;stroke-width:0.2;stroke-linecap:butt;stroke-linejoin:miter;stroke-miterlimit:10;stroke-dasharray:none;stroke-opacity:1"
       transform="matrix(1.3333333,0,0,-1.3333333,156.4492,29.630267)"
       clip-path="url(#clipPath39)" />
    <path
       id="path40"
       d="M 0,0 C 0.956,0 1.936,0.314 2.938,0.94 2.716,1.327 2.449,1.628 2.138,1.845 1.826,2.062 1.518,2.17 1.214,2.17 0.866,2.17 0.453,2.001 -0.027,1.662 -0.507,1.324 -1.027,0.824 -1.59,0.161 -1.017,0.054 -0.487,0 0,0 m 4.179,-0.838 c -0.312,0 -0.621,0.063 -0.929,0.188 -0.309,0.126 -0.561,0.29 -0.758,0.494 -0.326,-0.211 -0.724,-0.378 -1.195,-0.499 -0.471,-0.122 -0.941,-0.183 -1.41,-0.183 -0.53,0 -1.074,0.057 -1.633,0.172 -0.559,0.115 -1.002,0.263 -1.332,0.446 l -0.188,-0.215 c -0.243,-0.269 -0.644,-0.403 -1.203,-0.403 -0.06,0 -0.092,0.03 -0.092,0.091 v 0.656 c 0,0.061 0.032,0.091 0.092,0.091 0.329,0 0.591,0.06 0.784,0.18 0.194,0.12 0.389,0.352 0.585,0.696 l 0.172,0.306 c 0.076,0.129 0.193,0.193 0.35,0.193 0.103,0 0.189,-0.034 0.258,-0.102 C -2.475,0.9 -2.584,0.646 -2.648,0.51 -2.469,0.424 -2.286,0.353 -2.1,0.295 -0.696,2.157 0.5,3.088 1.488,3.088 1.695,3.088 1.951,3.004 2.256,2.836 2.561,2.668 2.832,2.451 3.072,2.186 3.313,1.921 3.432,1.689 3.432,1.488 3.432,1.044 3.291,0.648 3.008,0.301 3.341,0.1 3.731,0 4.179,0 4.243,0 4.275,-0.03 4.275,-0.091 v -0.656 c 0,-0.061 -0.032,-0.091 -0.096,-0.091"
       style="fill:#ffffff;fill-opacity:1;fill-rule:nonzero;stroke:none"
       transform="matrix(1.3333333,0,0,-1.3333333,164.01173,27.718133)"
       clip-path="url(#clipPath41)" />
    <path
       id="path42"
       d="M 0,0 C 0.956,0 1.936,0.314 2.938,0.94 2.716,1.327 2.449,1.628 2.138,1.845 1.826,2.062 1.518,2.17 1.214,2.17 0.866,2.17 0.453,2.001 -0.027,1.662 -0.507,1.324 -1.027,0.824 -1.59,0.161 -1.017,0.054 -0.487,0 0,0 Z m 4.179,-0.838 c -0.312,0 -0.621,0.063 -0.929,0.188 -0.309,0.126 -0.561,0.29 -0.758,0.494 -0.326,-0.211 -0.724,-0.378 -1.195,-0.499 -0.471,-0.122 -0.941,-0.183 -1.41,-0.183 -0.53,0 -1.074,0.057 -1.633,0.172 -0.559,0.115 -1.002,0.263 -1.332,0.446 l -0.188,-0.215 c -0.243,-0.269 -0.644,-0.403 -1.203,-0.403 -0.06,0 -0.092,0.03 -0.092,0.091 v 0.656 c 0,0.061 0.032,0.091 0.092,0.091 0.329,0 0.591,0.06 0.784,0.18 0.194,0.12 0.389,0.352 0.585,0.696 l 0.172,0.306 c 0.076,0.129 0.193,0.193 0.35,0.193 0.103,0 0.189,-0.034 0.258,-0.102 C -2.475,0.9 -2.584,0.646 -2.648,0.51 -2.469,0.424 -2.286,0.353 -2.1,0.295 -0.696,2.157 0.5,3.088 1.488,3.088 1.695,3.088 1.951,3.004 2.256,2.836 2.561,2.668 2.832,2.451 3.072,2.186 3.313,1.921 3.432,1.689 3.432,1.488 3.432,1.044 3.291,0.648 3.008,0.301 3.341,0.1 3.731,0 4.179,0 4.243,0 4.275,-0.03 4.275,-0.091 v -0.656 c 0,-0.061 -0.032,-0.091 -0.096,-0.091 z"
       style="fill:none;stroke:#ffffff;stroke-width:0.2;stroke-linecap:butt;stroke-linejoin:miter;stroke-miterlimit:10;stroke-dasharray:none;stroke-opacity:1"
       transform="matrix(1.3333333,0,0,-1.3333333,164.01173,27.718133)"
       clip-path="url(#clipPath43)" />
    <path
       id="path44"
       d="m 0,0 c -0.061,0 -0.092,0.03 -0.092,0.091 v 0.656 c 0,0.061 0.031,0.091 0.092,0.091 1.078,0 1.925,0.093 2.541,0.279 l 0.611,0.21 C 3.568,1.484 3.938,1.592 4.26,1.649 3.973,1.792 3.689,1.975 3.41,2.197 3.113,2.43 2.873,2.592 2.688,2.683 2.504,2.774 2.314,2.82 2.121,2.82 1.771,2.82 1.455,2.73 1.176,2.551 L 0.918,2.39 c -0.107,0.108 -0.16,0.251 -0.16,0.43 0,0.276 0.121,0.497 0.365,0.666 0.243,0.168 0.564,0.252 0.961,0.252 0.232,0 0.468,-0.05 0.706,-0.15 C 3.028,3.488 3.305,3.323 3.62,3.094 4.003,2.811 4.329,2.599 4.598,2.457 4.866,2.316 5.139,2.215 5.414,2.154 5.689,2.093 6.091,2.063 6.617,2.063 L 6.198,1.251 C 5.969,1.28 5.764,1.3 5.58,1.311 L 5.543,1.316 5.317,1.311 C 5.063,1.311 4.82,1.273 4.59,1.198 4.358,1.123 4,0.96 3.513,0.709 2.965,0.426 2.47,0.237 2.027,0.143 1.585,0.047 0.909,0 0,0"
       style="fill:#ffffff;fill-opacity:1;fill-rule:nonzero;stroke:#ffffff;stroke-width:0.2;stroke-linecap:butt;stroke-linejoin:miter;stroke-miterlimit:10;stroke-dasharray:none;stroke-opacity:1"
       transform="matrix(1.3333333,0,0,-1.3333333,169.6576,28.835333)"
       clip-path="url(#clipPath45)" />
    <path
       id="path46"
       d="M 0,0 V -0.687 C 0,-1.396 -0.025,-2.358 -0.075,-3.572 L -0.58,-3.663 c -0.047,2.571 -0.147,4.705 -0.301,6.402 l -0.005,0.14 c 0,0.233 0.058,0.418 0.174,0.556 0.116,0.138 0.3,0.231 0.551,0.282 C -0.15,3.67 -0.14,3.628 -0.129,3.588 -0.118,3.548 0.002,3.156 0.232,2.412 L -0.064,2.159 -0.06,2.105 C -0.02,1.318 0,0.616 0,0"
       style="fill:#ffffff;fill-opacity:1;fill-rule:nonzero;stroke:#ffffff;stroke-width:0.2;stroke-linecap:butt;stroke-linejoin:miter;stroke-miterlimit:10;stroke-dasharray:none;stroke-opacity:1"
       transform="matrix(1.3333333,0,0,-1.3333333,180.33853,23.9512)"
       clip-path="url(#clipPath47)" />
    <path
       style="font-size:27.1436px;font-family:'Markazi Text';-inkscape-font-specification:'Markazi Text';direction:rtl;fill:#ffffff;stroke-width:1.27236"
       d="m 174.15896,57.965287 -0.66268,-1.948295 q 0.79522,-0.265074 1.51092,-0.556656 0.7157,-0.278328 1.28561,-0.556656 1.93504,-0.941013 2.74352,-1.988057 0.80848,-1.047043 0.84824,-2.027817 l -0.0265,-0.941014 q 0,-0.516895 -0.18555,-1.219341 -0.1723,-0.715701 -0.53015,-1.39164 -0.35785,-0.675939 -0.888,-1.126565 -0.53015,-0.450627 -1.23259,-0.450627 -0.87475,0 -1.6037,0.662686 -0.7157,0.649432 -0.7157,1.656714 0,0.901252 0.99402,1.219341 0.99403,0.318089 2.50496,0.318089 0.49038,0 1.02053,-0.02651 0.53015,-0.02651 1.07355,-0.06627 l -0.10603,1.815759 q -0.7422,0.159044 -1.37838,0.238567 -0.62293,0.07952 -1.21934,0.07952 -1.11332,0 -2.05433,-0.291582 -0.94101,-0.304835 -1.51092,-0.994028 -0.55666,-0.702447 -0.56991,-1.921788 -0.0133,-1.03379 0.45062,-2.10734 0.46388,-1.073551 1.31212,-1.802505 0.86149,-0.742208 2.04107,-0.742208 0.96752,0 1.68322,0.56991 0.72896,0.569909 1.19284,1.497669 0.47713,0.92776 0.7157,2.014564 0.23857,1.086804 0.23857,2.120594 0,1.842266 -0.62293,3.220652 -0.62292,1.378386 -1.69647,2.35916 -0.90126,0.834984 -2.08084,1.418147 -1.17958,0.583164 -2.53146,0.967521 z m -8.50888,-6.308766 v -2.054325 h 3.60501 q 0.3446,0 0.43737,-0.10603 0.0928,-0.119283 0,-0.649432 -0.14579,-0.609671 -0.51689,-1.789251 -0.35785,-1.17958 -0.90125,-2.557966 l 1.59044,-0.145791 q 0.59642,1.378386 0.888,2.57122 0.29158,1.17958 0.29158,2.133847 0,0.530149 -0.0928,1.007283 -0.0795,0.463879 -0.23857,0.82173 -0.21206,0.463879 -0.43737,0.622924 -0.22532,0.145791 -0.64943,0.145791 z m 0,0 q -0.35785,0 -0.47713,-0.265074 -0.11928,-0.265075 -0.11928,-0.755462 0,-0.556656 0.11928,-0.795223 0.10603,-0.238566 0.47713,-0.238566 z m 4.12191,4.78459 -1.90854,-1.418148 1.13982,-1.457908 1.89528,1.431401 z m -3.04836,0 -1.90853,-1.418148 1.13982,-1.457908 1.89528,1.431401 z m -7.77992,-4.78459 v -2.054325 h 3.2074 q 0.35785,0 0.45062,-0.132537 0.0928,-0.145791 0,-0.622925 l -0.72895,-3.909845 1.49767,-0.119283 q 0.3711,1.550684 0.59641,2.82304 0.23857,1.259103 0.29159,2.398922 l -0.49039,-0.437372 h 1.88203 v 2.054325 h -0.38436 q -0.66269,0 -1.2326,-0.132537 -0.56991,-0.132537 -1.02053,-0.344597 l 0.98077,0.05302 q -0.53015,0.212059 -1.51092,0.318089 -0.96752,0.10603 -2.26639,0.10603 z m 6.70638,0 v -2.054325 q 0.3711,0 0.47713,0.238566 0.11928,0.238567 0.11928,0.795223 0,0.490387 -0.11928,0.755462 -0.11928,0.265074 -0.47713,0.265074 z m -6.70638,0 q -0.35785,0 -0.47714,-0.265074 -0.11928,-0.265075 -0.11928,-0.755462 0,-0.556656 0.11928,-0.795223 0.10603,-0.238566 0.47714,-0.238566 z m 3.32668,-8.469122 -2.04107,-1.524176 1.21934,-1.550685 2.02782,1.524177 z m -3.32668,6.414797 v 2.054325 h -0.83499 q -0.74221,0 -1.24585,-0.119284 -0.49038,-0.132537 -0.888,-0.477133 l 1.00729,-0.06627 q -1.28561,0.410865 -2.61098,0.636178 -1.32538,0.21206 -2.65075,0.21206 -2.05432,0 -3.02184,-0.768715 -0.96752,-0.781969 -1.28561,-2.809787 l 1.03379,-0.543402 q 0.21206,0.861491 0.70244,1.298863 0.50364,0.424119 1.24585,0.56991 0.75546,0.145791 1.69648,0.145791 1.10006,0 2.27964,-0.132537 1.17958,-0.145791 2.08083,-0.490388 l -0.91451,0.82173 q -0.1988,-1.17958 -0.80847,-2.451936 -0.59642,-1.28561 -1.4314,-2.544713 -0.82173,-1.272356 -1.72299,-2.398921 l 1.51093,-1.126566 q 1.24584,1.497669 2.08083,3.273667 0.83498,1.775997 1.41815,3.7508 0.22531,0.795223 0.51689,0.980775 0.29158,0.185552 1.19283,0.185552 z m 0,2.054325 v -2.054325 q 0.3711,0 0.47713,0.238566 0.11928,0.238567 0.11928,0.795223 0,0.490387 -0.11928,0.755462 -0.11928,0.265074 -0.47713,0.265074 z m -20.78182,6.308766 -0.66269,-1.948295 q 0.79522,-0.265074 1.51092,-0.556656 0.7157,-0.278328 1.28561,-0.556656 1.93505,-0.941013 2.74352,-1.988057 0.80848,-1.047043 0.84824,-2.027817 l -0.0265,-0.941014 q 0,-0.516895 -0.18555,-1.219341 -0.1723,-0.715701 -0.53015,-1.39164 -0.35785,-0.675939 -0.888,-1.126565 -0.53015,-0.450627 -1.23259,-0.450627 -0.87475,0 -1.6037,0.662686 -0.7157,0.649432 -0.7157,1.656714 0,0.901252 0.99403,1.219341 0.99403,0.318089 2.50495,0.318089 0.49039,0 1.02053,-0.02651 0.53015,-0.02651 1.07355,-0.06627 l -0.10602,1.815759 q -0.74221,0.159044 -1.37839,0.238567 -0.62293,0.07952 -1.21934,0.07952 -1.11331,0 -2.05433,-0.291582 -0.94101,-0.304835 -1.51092,-0.994028 -0.55666,-0.702447 -0.56991,-1.921788 -0.0132,-1.03379 0.45063,-2.10734 0.46388,-1.073551 1.31211,-1.802505 0.86149,-0.742208 2.04107,-0.742208 0.96753,0 1.68323,0.56991 0.72895,0.569909 1.19283,1.497669 0.47713,0.92776 0.7157,2.014564 0.23857,1.086804 0.23857,2.120594 0,1.842266 -0.62293,3.220652 -0.62292,1.378386 -1.69647,2.35916 -0.90125,0.834984 -2.08083,1.418147 -1.17959,0.583164 -2.53146,0.967521 z m -9.34387,-0.01325 -0.66269,-1.948296 q 1.24585,-0.424119 2.45194,-0.967521 1.20609,-0.530148 2.02782,-1.232595 1.16632,-1.007282 1.16632,-2.266385 0,-0.477133 -0.15904,-1.07355 -0.15905,-0.596417 -0.39761,-1.298864 -0.26508,-0.755461 -0.6892,-1.908534 -0.42411,-1.166327 -0.86149,-2.292892 l 1.68322,-0.46388 q 0.35785,0.941013 0.59642,1.709729 0.25182,0.755461 0.49039,1.630206 0.23857,0.901252 0.41086,1.789251 0.1723,0.887999 0.1723,1.802505 0,1.630206 -0.62292,2.756772 -0.62293,1.139819 -1.78925,1.988056 -0.76872,0.556656 -1.74949,1.007282 -0.98078,0.46388 -2.06758,0.768716 z m 2.63749,-15.573111 -2.04107,-1.524177 1.21934,-1.550684 2.02781,1.524177 z m -14.56583,4.135158 v -1.616953 h 5.64608 v 1.616953 z m -85.499688,5.221962 -3.605009,-12.352459 0.636178,0.410865 -1.802505,-0.384357 0.06627,-0.874745 h 5.062917 l -0.06627,0.874745 q -0.622925,0.265074 -1.696475,0.450626 l 0.159044,-0.397611 2.968832,11.172878 0.265074,1.03379 q -0.410865,0.06627 -0.967521,0.07952 -0.543402,0.02651 -1.020536,-0.01325 z m 1.988057,-0.06627 -1.351879,-0.198806 3.538741,-12.630787 1.471162,0.01325 z m 5.579812,0.06627 -3.313428,-12.047623 -0.07952,-0.848238 q 0.371104,-0.06627 0.914506,-0.07952 0.543402,-0.02651 0.967521,0 l 3.207398,11.875325 0.291582,1.03379 q -0.410865,0.06627 -0.967521,0.07952 -0.556656,0.02651 -1.020536,-0.01325 z m 1.988057,-0.06627 -1.351879,-0.198806 3.300175,-12.074131 0.14579,0.397611 -1.775997,-0.384357 0.06627,-0.874745 h 4.267695 l -0.06627,0.848237 q -0.291582,0.159045 -0.702447,0.291582 -0.410865,0.119283 -0.887998,0.198806 l 0.569909,-0.46388 z m 7.064229,-0.09278 v -8.866733 l 2.120594,-0.251821 v 9.118554 z m 0,-6.666617 v -1.696475 l 0.318089,0.583163 -1.829012,-0.874745 0.05302,-0.556656 q 0.583163,-0.25182 1.351878,-0.437372 0.768716,-0.198806 1.643461,-0.278328 h 0.583163 v 2.10734 z m -1.431401,6.746139 0.06627,-0.795223 q 0.344596,-0.159044 0.742208,-0.278328 0.410865,-0.132537 0.887998,-0.238567 l -0.265074,0.980775 V 49.50942 h 2.120594 v 1.815758 l -0.225313,-0.874745 1.709729,0.384358 -0.06627,0.82173 z M 48.871638,39.94024 q -0.649432,0 -1.033789,-0.371104 -0.371104,-0.371104 -0.371104,-1.007282 0,-0.636178 0.371104,-1.007282 0.384357,-0.371104 1.033789,-0.371104 0.649432,0 1.020536,0.371104 0.384358,0.371104 0.384358,1.007282 0,0.636178 -0.384358,1.007282 -0.371104,0.371104 -1.020536,0.371104 z M 60.30959,51.576999 v -6.679871 q 0,-1.815758 -1.74949,-1.815758 -1.378386,0 -2.783279,1.113311 l -0.265075,-0.662685 q 0.808477,-0.954267 1.85552,-1.471162 1.047043,-0.516895 2.200116,-0.516895 1.378386,0 2.120594,0.768715 0.742208,0.755462 0.742208,2.173609 v 7.090736 z m -5.990678,0 V 42.72352 l 2.120594,0.556655 v 8.296824 z m -1.351878,0.07952 0.06627,-0.795223 q 0.384358,-0.185552 0.768716,-0.304835 0.384357,-0.119284 0.768715,-0.21206 l -0.251821,0.980775 V 49.50942 h 2.120594 v 1.815758 l -0.212059,-0.874745 1.616953,0.384358 -0.06627,0.82173 z m 6.229244,0 0.06627,-0.848238 q 0.278328,-0.132537 0.596417,-0.25182 0.318089,-0.119284 0.702446,-0.21206 l -0.25182,0.980775 V 49.50942 h 2.120594 v 1.815758 l -0.21206,-0.874745 1.616953,0.384358 -0.06627,0.82173 z m -4.877366,-6.746139 v -1.696475 l 0.31809,0.583163 -1.829013,-0.874745 0.05302,-0.556656 q 0.583164,-0.25182 1.351879,-0.437372 0.768715,-0.198806 1.64346,-0.278328 l 0.503641,2.10734 z m 14.764634,6.984706 q -1.802505,0 -2.876055,-1.312118 -1.073551,-1.312117 -1.073551,-3.538741 0,-2.518205 1.378386,-4.015874 1.39164,-1.497669 3.724293,-1.497669 2.014564,0 2.809787,1.245848 l -0.424119,0.994029 q -1.17958,-0.994029 -2.531459,-0.994029 -1.298864,0 -1.988057,0.994029 -0.689193,0.980774 -0.689193,2.809786 0,1.815759 0.67594,2.796534 0.689193,0.980774 1.948295,0.980774 1.206088,0 2.478444,-0.994028 l 0.251821,0.569909 q -1.64346,1.96155 -3.684532,1.96155 z m 4.877366,-1.007282 -2.120594,-0.543403 V 38.177497 h 2.120594 z M 71.840318,39.807703 v -1.656714 l 0.212059,0.46388 -1.935041,-0.728954 0.05301,-0.477134 q 1.325372,-0.477133 2.995339,-0.543402 h 0.795223 v 2.279639 z m 0.583163,11.888579 -0.450626,-1.722982 1.988057,-0.56991 v 1.444654 l -0.291582,-0.530148 1.616953,0.46388 -0.06627,0.768715 q -1.086804,0.172298 -2.796533,0.145791 z m 9.039031,0.198806 q -2.200116,0 -3.49898,-1.39164 -1.298863,-1.39164 -1.298863,-3.764054 0,-2.385668 1.312117,-3.790561 1.312117,-1.418147 3.525487,-1.418147 2.200116,0 3.485726,1.404893 1.298864,1.404893 1.298864,3.764054 0,2.385668 -1.312117,3.790561 -1.298864,1.404894 -3.512234,1.404894 z m 0.225313,-1.245849 q 2.266385,0 2.266385,-3.591756 0,-2.067579 -0.702447,-3.167637 -0.702447,-1.113312 -1.988057,-1.113312 -2.266384,0 -2.266384,3.591756 0,2.067579 0.702446,3.180891 0.702447,1.100058 1.988057,1.100058 z m 8.933003,1.086804 -2.862801,-9.092046 0.583163,0.384358 -1.616953,-0.384358 0.06627,-0.874745 h 4.559277 l -0.06627,0.874745 q -0.278328,0.132537 -0.662686,0.251821 -0.384357,0.119283 -0.768715,0.212059 l 0.159045,-0.397611 2.226623,7.925719 0.265074,1.03379 q -0.278328,0.03976 -0.596417,0.06627 -0.304835,0.02651 -0.636178,0.02651 -0.331343,0 -0.649432,-0.02651 z m 0.609671,-0.265074 2.743518,-9.449896 1.404894,0.01325 -2.876056,9.635448 z m 5.367753,0.265074 -2.531459,-8.866733 -0.09278,-0.848237 q 0.371104,-0.06627 0.861492,-0.07952 0.490387,-0.02651 0.914506,0 l 2.438682,8.694434 0.291582,1.03379 q -0.265074,0.03976 -0.583163,0.06627 -0.318089,0.02651 -0.649432,0.02651 -0.331343,0 -0.649432,-0.02651 z m 0.609671,-0.265074 2.557966,-8.813718 0.10603,0.371104 -1.471162,-0.384358 0.06627,-0.874745 h 3.790565 l -0.0663,0.848238 q -0.31809,0.185552 -0.70245,0.304835 -0.3711,0.119284 -0.75546,0.21206 l 0.56991,-0.46388 -2.823041,8.99927 z M 106.406,51.86858 q -1.84227,0 -3.06161,-0.848237 -0.10603,-0.490388 -0.15905,-1.126566 -0.053,-0.649432 -0.0132,-1.325371 h 1.03379 l 1.0868,2.279638 -0.86149,-0.795222 q 1.00729,0.649432 2.18687,0.649432 1.70972,0 1.70972,-1.365133 0,-1.007282 -1.37838,-1.457908 l -1.08681,-0.344596 q -2.57122,-0.808477 -2.57122,-2.942324 0,-1.39164 0.98078,-2.21337 0.98077,-0.82173 2.62423,-0.82173 1.48442,0 2.664,0.609671 0.22531,1.007282 0.18555,2.213369 h -1.0868 l -1.08681,-2.279638 1.29887,1.245849 q -1.13982,-0.622924 -2.18687,-0.622924 -1.4579,0 -1.4579,1.259102 0,1.020536 1.47116,1.497669 l 1.0868,0.344597 q 1.28561,0.410865 1.90854,1.126565 0.62292,0.715701 0.62292,1.775998 0,1.444654 -1.0603,2.292892 -1.06029,0.848237 -2.84954,0.848237 z"
       id="text1"
       aria-label="ويندوز - Windows" />
  </g>
</svg>
